<?xml version="1.0" encoding="UTF-8"?>
<svg xmlns="http://www.w3.org/2000/svg" xmlns:xlink="http://www.w3.org/1999/xlink" width="5266" height="4067" viewBox="0 0 5266 4067">

<path fill="none" stroke-width="53.316" stroke-linecap="square" stroke-linejoin="miter" stroke="rgb(83.984375%, 83.59375%, 65.818787%)" stroke-opacity="1" stroke-miterlimit="4" d="M 6679.140625 36057.8125 L 6129.648438 35493.59375 L 5305.3125 35493.59375 L 1458.554688 40571.289062 L 634.296875 40571.289062 L 84.6875 40007.109375 L 3671.523438 40007.109375 Z M 6679.140625 36057.8125 " transform="matrix(0.1, 0, 0, -0.1, 0, 4067)"/>
<path fill="none" stroke-width="53.316" stroke-linecap="square" stroke-linejoin="miter" stroke="rgb(83.984375%, 83.59375%, 65.818787%)" stroke-opacity="1" stroke-miterlimit="4" d="M 6129.648438 40571.289062 L 6129.648438 37468.203125 L 634.296875 35493.59375 L 84.6875 36057.8125 L 84.6875 36904.101562 L 6679.140625 39160.78125 L 6679.140625 40007.109375 Z M 6129.648438 40571.289062 " transform="matrix(0.1, 0, 0, -0.1, 0, 4067)"/>
<path fill="none" stroke-width="36.4474" stroke-linecap="square" stroke-linejoin="miter" stroke="rgb(83.984375%, 83.59375%, 65.818787%)" stroke-opacity="1" stroke-miterlimit="4" d="M 6679.140625 37186.210938 L 2832.421875 35493.59375 L 84.6875 38878.789062 L 84.6875 39725 L 909.023438 39725 L 3931.445312 35493.59375 L 6404.414062 36621.992188 Z M 6679.140625 37186.210938 " transform="matrix(0.1, 0, 0, -0.1, 0, 4067)"/>
<path fill="none" stroke-width="53.316" stroke-linecap="square" stroke-linejoin="miter" stroke="rgb(83.984375%, 83.59375%, 65.818787%)" stroke-opacity="1" stroke-miterlimit="4" d="M 6550.078125 36090.898438 L 7099.609375 35526.71875 L 7923.945312 35526.71875 L 11770.703125 40604.414062 L 12594.882812 40604.414062 L 13144.414062 40040.3125 L 9557.734375 40040.3125 Z M 6550.078125 36090.898438 " transform="matrix(0.1, 0, 0, -0.1, 0, 4067)"/>
<path fill="none" stroke-width="53.316" stroke-linecap="square" stroke-linejoin="miter" stroke="rgb(83.984375%, 83.59375%, 65.818787%)" stroke-opacity="1" stroke-miterlimit="4" d="M 7099.609375 40604.414062 L 7099.609375 37501.40625 L 12594.882812 35526.71875 L 13144.414062 36090.898438 L 13144.414062 36937.1875 L 6550.078125 39193.984375 L 6550.078125 40040.3125 Z M 7099.609375 40604.414062 " transform="matrix(0.1, 0, 0, -0.1, 0, 4067)"/>
<path fill="none" stroke-width="36.4474" stroke-linecap="square" stroke-linejoin="miter" stroke="rgb(83.984375%, 83.59375%, 65.818787%)" stroke-opacity="1" stroke-miterlimit="4" d="M 6550.078125 37219.296875 L 10396.796875 35526.71875 L 13144.414062 38911.914062 L 13144.414062 39758.203125 L 12320.117188 39758.203125 L 9297.773438 35526.71875 L 6824.804688 36655.117188 Z M 6550.078125 37219.296875 " transform="matrix(0.1, 0, 0, -0.1, 0, 4067)"/>
<path fill="none" stroke-width="53.316" stroke-linecap="square" stroke-linejoin="miter" stroke="rgb(83.984375%, 83.59375%, 65.818787%)" stroke-opacity="1" stroke-miterlimit="4" d="M 6657.617188 35045.390625 L 6108.125 35609.609375 L 5283.789062 35609.609375 L 1437.03125 30531.796875 L 612.773438 30531.796875 L 63.164062 31096.09375 L 3650 31096.09375 Z M 6657.617188 35045.390625 " transform="matrix(0.1, 0, 0, -0.1, 0, 4067)"/>
<path fill="none" stroke-width="53.316" stroke-linecap="square" stroke-linejoin="miter" stroke="rgb(83.984375%, 83.59375%, 65.818787%)" stroke-opacity="1" stroke-miterlimit="4" d="M 6108.125 30531.796875 L 6108.125 33634.882812 L 612.773438 35609.609375 L 63.164062 35045.390625 L 63.164062 34199.101562 L 6657.617188 31942.304688 L 6657.617188 31096.09375 Z M 6108.125 30531.796875 " transform="matrix(0.1, 0, 0, -0.1, 0, 4067)"/>
<path fill="none" stroke-width="36.4474" stroke-linecap="square" stroke-linejoin="miter" stroke="rgb(83.984375%, 83.59375%, 65.818787%)" stroke-opacity="1" stroke-miterlimit="4" d="M 6657.617188 33916.992188 L 2810.9375 35609.609375 L 63.164062 32224.414062 L 63.164062 31378.203125 L 887.5 31378.203125 L 3909.921875 35609.609375 L 6382.890625 34481.210938 Z M 6657.617188 33916.992188 " transform="matrix(0.1, 0, 0, -0.1, 0, 4067)"/>
<path fill="none" stroke-width="53.316" stroke-linecap="square" stroke-linejoin="miter" stroke="rgb(83.984375%, 83.59375%, 65.818787%)" stroke-opacity="1" stroke-miterlimit="4" d="M 6528.554688 35012.304688 L 7078.085938 35576.40625 L 7902.421875 35576.40625 L 11749.101562 30498.710938 L 12573.398438 30498.710938 L 13122.890625 31062.890625 L 9536.210938 31062.890625 Z M 6528.554688 35012.304688 " transform="matrix(0.1, 0, 0, -0.1, 0, 4067)"/>
<path fill="none" stroke-width="53.316" stroke-linecap="square" stroke-linejoin="miter" stroke="rgb(83.984375%, 83.59375%, 65.818787%)" stroke-opacity="1" stroke-miterlimit="4" d="M 7078.085938 30498.710938 L 7078.085938 33601.796875 L 12573.398438 35576.40625 L 13122.890625 35012.304688 L 13122.890625 34166.015625 L 6528.554688 31909.21875 L 6528.554688 31062.890625 Z M 7078.085938 30498.710938 " transform="matrix(0.1, 0, 0, -0.1, 0, 4067)"/>
<path fill="none" stroke-width="36.4474" stroke-linecap="square" stroke-linejoin="miter" stroke="rgb(83.984375%, 83.59375%, 65.818787%)" stroke-opacity="1" stroke-miterlimit="4" d="M 6528.554688 33883.789062 L 10375.3125 35576.40625 L 13122.890625 32191.289062 L 13122.890625 31344.882812 L 12298.710938 31345 L 9276.25 35576.40625 L 6803.28125 34448.085938 Z M 6528.554688 33883.789062 " transform="matrix(0.1, 0, 0, -0.1, 0, 4067)"/>
<path fill="none" stroke-width="53.316" stroke-linecap="square" stroke-linejoin="miter" stroke="rgb(83.984375%, 83.59375%, 65.818787%)" stroke-opacity="1" stroke-miterlimit="4" d="M 19710 36032.109375 L 19160.390625 35467.890625 L 18336.09375 35467.890625 L 14489.414062 40545.585938 L 13665 40545.585938 L 13115.507812 39981.40625 L 16702.304688 39981.40625 Z M 19710 36032.109375 " transform="matrix(0.1, 0, 0, -0.1, 0, 4067)"/>
<path fill="none" stroke-width="53.316" stroke-linecap="square" stroke-linejoin="miter" stroke="rgb(83.984375%, 83.59375%, 65.818787%)" stroke-opacity="1" stroke-miterlimit="4" d="M 19160.390625 40545.585938 L 19160.390625 37442.617188 L 13665 35467.890625 L 13115.507812 36032.109375 L 13115.507812 36878.398438 L 19710 39135.117188 L 19710 39981.40625 Z M 19160.390625 40545.585938 " transform="matrix(0.1, 0, 0, -0.1, 0, 4067)"/>
<path fill="none" stroke-width="36.4474" stroke-linecap="square" stroke-linejoin="miter" stroke="rgb(83.984375%, 83.59375%, 65.818787%)" stroke-opacity="1" stroke-miterlimit="4" d="M 19710 37160.390625 L 15863.203125 35467.890625 L 13115.507812 38853.085938 L 13115.507812 39699.296875 L 13939.804688 39699.296875 L 16962.304688 35467.890625 L 19435.195312 36596.289062 Z M 19710 37160.390625 " transform="matrix(0.1, 0, 0, -0.1, 0, 4067)"/>
<path fill="none" stroke-width="53.316" stroke-linecap="square" stroke-linejoin="miter" stroke="rgb(83.984375%, 83.59375%, 65.818787%)" stroke-opacity="1" stroke-miterlimit="4" d="M 19580.898438 36065.195312 L 20130.390625 35501.015625 L 20954.6875 35501.09375 L 24801.40625 40578.710938 L 25625.703125 40578.710938 L 26175.3125 40014.609375 L 22588.515625 40014.609375 Z M 19580.898438 36065.195312 " transform="matrix(0.1, 0, 0, -0.1, 0, 4067)"/>
<path fill="none" stroke-width="53.316" stroke-linecap="square" stroke-linejoin="miter" stroke="rgb(83.984375%, 83.59375%, 65.818787%)" stroke-opacity="1" stroke-miterlimit="4" d="M 20130.390625 40578.710938 L 20130.390625 37475.703125 L 25625.703125 35501.09375 L 26175.3125 36065.195312 L 26175.3125 36911.484375 L 19580.78125 39168.203125 L 19580.78125 40014.609375 Z M 20130.390625 40578.710938 " transform="matrix(0.1, 0, 0, -0.1, 0, 4067)"/>
<path fill="none" stroke-width="36.4474" stroke-linecap="square" stroke-linejoin="miter" stroke="rgb(83.984375%, 83.59375%, 65.818787%)" stroke-opacity="1" stroke-miterlimit="4" d="M 19580.78125 37193.59375 L 23427.5 35501.015625 L 26175.3125 38886.210938 L 26175.3125 39732.5 L 25350.898438 39732.5 L 22328.515625 35501.015625 L 19855.585938 36629.296875 Z M 19580.78125 37193.59375 " transform="matrix(0.1, 0, 0, -0.1, 0, 4067)"/>
<path fill="none" stroke-width="53.316" stroke-linecap="square" stroke-linejoin="miter" stroke="rgb(83.984375%, 83.59375%, 65.818787%)" stroke-opacity="1" stroke-miterlimit="4" d="M 19688.398438 35019.6875 L 19138.90625 35583.90625 L 18314.609375 35583.90625 L 14467.8125 30506.09375 L 13643.515625 30506.09375 L 13093.984375 31070.390625 L 16680.78125 31070.390625 Z M 19688.398438 35019.6875 " transform="matrix(0.1, 0, 0, -0.1, 0, 4067)"/>
<path fill="none" stroke-width="53.316" stroke-linecap="square" stroke-linejoin="miter" stroke="rgb(83.984375%, 83.59375%, 65.818787%)" stroke-opacity="1" stroke-miterlimit="4" d="M 19138.90625 30506.09375 L 19138.90625 33609.21875 L 13643.515625 35583.90625 L 13093.984375 35019.6875 L 13093.984375 34173.398438 L 19688.398438 31916.601562 L 19688.398438 31070.390625 Z M 19138.90625 30506.09375 " transform="matrix(0.1, 0, 0, -0.1, 0, 4067)"/>
<path fill="none" stroke-width="36.4474" stroke-linecap="square" stroke-linejoin="miter" stroke="rgb(83.984375%, 83.59375%, 65.818787%)" stroke-opacity="1" stroke-miterlimit="4" d="M 19688.398438 33891.289062 L 15841.71875 35583.90625 L 13093.984375 32198.710938 L 13093.984375 31352.382812 L 13918.28125 31352.382812 L 16940.703125 35583.90625 L 19413.59375 34455.507812 Z M 19688.398438 33891.289062 " transform="matrix(0.1, 0, 0, -0.1, 0, 4067)"/>
<path fill="none" stroke-width="53.316" stroke-linecap="square" stroke-linejoin="miter" stroke="rgb(83.984375%, 83.59375%, 65.818787%)" stroke-opacity="1" stroke-miterlimit="4" d="M 19559.414062 34986.601562 L 20108.90625 35550.703125 L 20933.085938 35550.703125 L 24779.882812 30473.007812 L 25604.21875 30473.007812 L 26153.789062 31037.1875 L 22566.992188 31037.1875 Z M 19559.414062 34986.601562 " transform="matrix(0.1, 0, 0, -0.1, 0, 4067)"/>
<path fill="none" stroke-width="53.316" stroke-linecap="square" stroke-linejoin="miter" stroke="rgb(83.984375%, 83.59375%, 65.818787%)" stroke-opacity="1" stroke-miterlimit="4" d="M 20108.90625 30473.007812 L 20108.90625 33576.015625 L 25604.21875 35550.703125 L 26153.789062 34986.601562 L 26153.789062 34140.195312 L 19559.414062 31883.515625 L 19559.414062 31037.1875 Z M 20108.90625 30473.007812 " transform="matrix(0.1, 0, 0, -0.1, 0, 4067)"/>
<path fill="none" stroke-width="36.4474" stroke-linecap="square" stroke-linejoin="miter" stroke="rgb(83.984375%, 83.59375%, 65.818787%)" stroke-opacity="1" stroke-miterlimit="4" d="M 19559.414062 33858.203125 L 23406.09375 35550.703125 L 26153.789062 32165.585938 L 26153.789062 31319.21875 L 25329.414062 31319.296875 L 22307.109375 35550.703125 L 19834.101562 34422.304688 Z M 19559.414062 33858.203125 " transform="matrix(0.1, 0, 0, -0.1, 0, 4067)"/>
<path fill="none" stroke-width="53.316" stroke-linecap="square" stroke-linejoin="miter" stroke="rgb(83.984375%, 83.59375%, 65.818787%)" stroke-opacity="1" stroke-miterlimit="4" d="M 6691.015625 26007.5 L 6141.484375 25443.28125 L 5317.226562 25443.28125 L 1470.46875 30521.09375 L 646.171875 30521.09375 L 96.640625 29956.796875 L 3683.359375 29956.796875 Z M 6691.015625 26007.5 " transform="matrix(0.1, 0, 0, -0.1, 0, 4067)"/>
<path fill="none" stroke-width="53.316" stroke-linecap="square" stroke-linejoin="miter" stroke="rgb(83.984375%, 83.59375%, 65.818787%)" stroke-opacity="1" stroke-miterlimit="4" d="M 6141.484375 30521.09375 L 6141.484375 27418.007812 L 646.171875 25443.28125 L 96.640625 26007.5 L 96.640625 26853.789062 L 6691.015625 29110.585938 L 6691.015625 29956.796875 Z M 6141.484375 30521.09375 " transform="matrix(0.1, 0, 0, -0.1, 0, 4067)"/>
<path fill="none" stroke-width="36.4474" stroke-linecap="square" stroke-linejoin="miter" stroke="rgb(83.984375%, 83.59375%, 65.818787%)" stroke-opacity="1" stroke-miterlimit="4" d="M 6691.015625 27135.898438 L 2844.257812 25443.28125 L 96.640625 28828.398438 L 96.640625 29674.804688 L 920.898438 29674.804688 L 3943.398438 25443.28125 L 6416.289062 26571.71875 Z M 6691.015625 27135.898438 " transform="matrix(0.1, 0, 0, -0.1, 0, 4067)"/>
<path fill="none" stroke-width="53.316" stroke-linecap="square" stroke-linejoin="miter" stroke="rgb(83.984375%, 83.59375%, 65.818787%)" stroke-opacity="1" stroke-miterlimit="4" d="M 6561.914062 26040.585938 L 7111.445312 25476.484375 L 7935.78125 25476.484375 L 11782.5 30554.101562 L 12606.914062 30554.21875 L 13156.40625 29990 L 9569.570312 29990 Z M 6561.914062 26040.585938 " transform="matrix(0.1, 0, 0, -0.1, 0, 4067)"/>
<path fill="none" stroke-width="53.316" stroke-linecap="square" stroke-linejoin="miter" stroke="rgb(83.984375%, 83.59375%, 65.818787%)" stroke-opacity="1" stroke-miterlimit="4" d="M 7111.445312 30554.101562 L 7111.445312 27451.210938 L 12606.914062 25476.484375 L 13156.40625 26040.585938 L 13156.40625 26886.914062 L 6561.914062 29143.710938 L 6561.914062 29990 Z M 7111.445312 30554.101562 " transform="matrix(0.1, 0, 0, -0.1, 0, 4067)"/>
<path fill="none" stroke-width="36.4474" stroke-linecap="square" stroke-linejoin="miter" stroke="rgb(83.984375%, 83.59375%, 65.818787%)" stroke-opacity="1" stroke-miterlimit="4" d="M 6561.914062 27168.984375 L 10408.710938 25476.484375 L 13156.40625 28861.601562 L 13156.289062 29707.890625 L 12332.109375 29707.890625 L 9309.648438 25476.484375 L 6836.71875 26604.804688 Z M 6561.914062 27168.984375 " transform="matrix(0.1, 0, 0, -0.1, 0, 4067)"/>
<path fill="none" stroke-width="53.316" stroke-linecap="square" stroke-linejoin="miter" stroke="rgb(83.984375%, 83.59375%, 65.818787%)" stroke-opacity="1" stroke-miterlimit="4" d="M 6669.492188 24995.117188 L 6119.960938 25559.296875 L 5295.703125 25559.296875 L 1448.945312 20481.601562 L 624.648438 20481.601562 L 75.117188 21045.78125 L 3661.835938 21045.78125 Z M 6669.492188 24995.117188 " transform="matrix(0.1, 0, 0, -0.1, 0, 4067)"/>
<path fill="none" stroke-width="53.316" stroke-linecap="square" stroke-linejoin="miter" stroke="rgb(83.984375%, 83.59375%, 65.818787%)" stroke-opacity="1" stroke-miterlimit="4" d="M 6119.960938 20481.601562 L 6119.960938 23584.609375 L 624.648438 25559.296875 L 75.117188 24995.117188 L 75.117188 24148.789062 L 6669.570312 21892.109375 L 6669.570312 21045.78125 Z M 6119.960938 20481.601562 " transform="matrix(0.1, 0, 0, -0.1, 0, 4067)"/>
<path fill="none" stroke-width="36.4474" stroke-linecap="square" stroke-linejoin="miter" stroke="rgb(83.984375%, 83.59375%, 65.818787%)" stroke-opacity="1" stroke-miterlimit="4" d="M 6669.492188 23866.796875 L 2822.8125 25559.296875 L 75.117188 22174.101562 L 75.117188 21327.890625 L 899.375 21327.890625 L 3921.875 25559.296875 L 6394.765625 24430.898438 Z M 6669.492188 23866.796875 " transform="matrix(0.1, 0, 0, -0.1, 0, 4067)"/>
<path fill="none" stroke-width="53.316" stroke-linecap="square" stroke-linejoin="miter" stroke="rgb(83.984375%, 83.59375%, 65.818787%)" stroke-opacity="1" stroke-miterlimit="4" d="M 6540.390625 24961.992188 L 7089.921875 25526.09375 L 7914.257812 25526.09375 L 11761.015625 20448.515625 L 12585.3125 20448.515625 L 13134.804688 21012.617188 L 9548.046875 21012.617188 Z M 6540.390625 24961.992188 " transform="matrix(0.1, 0, 0, -0.1, 0, 4067)"/>
<path fill="none" stroke-width="53.316" stroke-linecap="square" stroke-linejoin="miter" stroke="rgb(83.984375%, 83.59375%, 65.818787%)" stroke-opacity="1" stroke-miterlimit="4" d="M 7089.921875 20448.515625 L 7089.921875 23551.484375 L 12585.3125 25526.09375 L 13134.804688 24961.992188 L 13134.804688 24115.703125 L 6540.390625 21858.90625 L 6540.390625 21012.617188 Z M 7089.921875 20448.515625 " transform="matrix(0.1, 0, 0, -0.1, 0, 4067)"/>
<path fill="none" stroke-width="36.4474" stroke-linecap="square" stroke-linejoin="miter" stroke="rgb(83.984375%, 83.59375%, 65.818787%)" stroke-opacity="1" stroke-miterlimit="4" d="M 6540.390625 23833.59375 L 10387.109375 25526.09375 L 13134.804688 22141.015625 L 13134.804688 21294.609375 L 12310.585938 21294.804688 L 9288.125 25526.09375 L 6815.195312 24397.8125 Z M 6540.390625 23833.59375 " transform="matrix(0.1, 0, 0, -0.1, 0, 4067)"/>
<path fill="none" stroke-width="53.316" stroke-linecap="square" stroke-linejoin="miter" stroke="rgb(83.984375%, 83.59375%, 65.818787%)" stroke-opacity="1" stroke-miterlimit="4" d="M 19710 26007.5 L 19160.390625 25443.28125 L 18336.09375 25443.28125 L 14489.414062 30521.09375 L 13665 30521.09375 L 13115.507812 29956.796875 L 16702.304688 29956.796875 Z M 19710 26007.5 " transform="matrix(0.1, 0, 0, -0.1, 0, 4067)"/>
<path fill="none" stroke-width="53.316" stroke-linecap="square" stroke-linejoin="miter" stroke="rgb(83.984375%, 83.59375%, 65.818787%)" stroke-opacity="1" stroke-miterlimit="4" d="M 19160.390625 30521.09375 L 19160.390625 27418.007812 L 13665 25443.28125 L 13115.507812 26007.5 L 13115.507812 26853.789062 L 19710 29110.585938 L 19710 29956.796875 Z M 19160.390625 30521.09375 " transform="matrix(0.1, 0, 0, -0.1, 0, 4067)"/>
<path fill="none" stroke-width="36.4474" stroke-linecap="square" stroke-linejoin="miter" stroke="rgb(83.984375%, 83.59375%, 65.818787%)" stroke-opacity="1" stroke-miterlimit="4" d="M 19710 27135.898438 L 15863.203125 25443.28125 L 13115.507812 28828.398438 L 13115.507812 29674.804688 L 13939.804688 29674.804688 L 16962.304688 25443.28125 L 19435.195312 26571.71875 Z M 19710 27135.898438 " transform="matrix(0.1, 0, 0, -0.1, 0, 4067)"/>
<path fill="none" stroke-width="53.316" stroke-linecap="square" stroke-linejoin="miter" stroke="rgb(83.984375%, 83.59375%, 65.818787%)" stroke-opacity="1" stroke-miterlimit="4" d="M 19580.78125 26040.585938 L 20130.390625 25476.484375 L 20954.6875 25476.484375 L 24801.40625 30554.101562 L 25625.703125 30554.21875 L 26175.3125 29990 L 22588.515625 29990 Z M 19580.78125 26040.585938 " transform="matrix(0.1, 0, 0, -0.1, 0, 4067)"/>
<path fill="none" stroke-width="53.316" stroke-linecap="square" stroke-linejoin="miter" stroke="rgb(83.984375%, 83.59375%, 65.818787%)" stroke-opacity="1" stroke-miterlimit="4" d="M 20130.390625 30554.101562 L 20130.3125 27451.210938 L 25625.703125 25476.484375 L 26175.3125 26040.585938 L 26175.3125 26886.914062 L 19580.78125 29143.710938 L 19580.78125 29990 Z M 20130.390625 30554.101562 " transform="matrix(0.1, 0, 0, -0.1, 0, 4067)"/>
<path fill="none" stroke-width="36.4474" stroke-linecap="square" stroke-linejoin="miter" stroke="rgb(83.984375%, 83.59375%, 65.818787%)" stroke-opacity="1" stroke-miterlimit="4" d="M 19580.78125 27168.984375 L 23427.5 25476.484375 L 26175.3125 28861.601562 L 26175.3125 29707.890625 L 25350.898438 29707.890625 L 22328.515625 25476.484375 L 19855.585938 26604.804688 Z M 19580.78125 27168.984375 " transform="matrix(0.1, 0, 0, -0.1, 0, 4067)"/>
<path fill="none" stroke-width="53.316" stroke-linecap="square" stroke-linejoin="miter" stroke="rgb(83.984375%, 83.59375%, 65.818787%)" stroke-opacity="1" stroke-miterlimit="4" d="M 19688.398438 24995.117188 L 19138.90625 25559.296875 L 18314.609375 25559.296875 L 14467.8125 20481.601562 L 13643.515625 20481.601562 L 13093.984375 21045.78125 L 16680.78125 21045.78125 Z M 19688.398438 24995.117188 " transform="matrix(0.1, 0, 0, -0.1, 0, 4067)"/>
<path fill="none" stroke-width="53.316" stroke-linecap="square" stroke-linejoin="miter" stroke="rgb(83.984375%, 83.59375%, 65.818787%)" stroke-opacity="1" stroke-miterlimit="4" d="M 19138.90625 20481.601562 L 19138.90625 23584.609375 L 13643.515625 25559.296875 L 13093.984375 24995.117188 L 13093.984375 24148.789062 L 19688.398438 21892.109375 L 19688.398438 21045.78125 Z M 19138.90625 20481.601562 " transform="matrix(0.1, 0, 0, -0.1, 0, 4067)"/>
<path fill="none" stroke-width="36.4474" stroke-linecap="square" stroke-linejoin="miter" stroke="rgb(83.984375%, 83.59375%, 65.818787%)" stroke-opacity="1" stroke-miterlimit="4" d="M 19688.398438 23866.796875 L 15841.71875 25559.296875 L 13093.984375 22174.101562 L 13093.984375 21327.890625 L 13918.28125 21327.890625 L 16940.703125 25559.296875 L 19413.59375 24430.898438 Z M 19688.398438 23866.796875 " transform="matrix(0.1, 0, 0, -0.1, 0, 4067)"/>
<path fill="none" stroke-width="53.316" stroke-linecap="square" stroke-linejoin="miter" stroke="rgb(83.984375%, 83.59375%, 65.818787%)" stroke-opacity="1" stroke-miterlimit="4" d="M 19559.414062 24961.992188 L 20108.90625 25526.09375 L 20933.085938 25526.09375 L 24779.882812 20448.515625 L 25604.21875 20448.515625 L 26153.789062 21012.617188 L 22566.992188 21012.617188 Z M 19559.414062 24961.992188 " transform="matrix(0.1, 0, 0, -0.1, 0, 4067)"/>
<path fill="none" stroke-width="53.316" stroke-linecap="square" stroke-linejoin="miter" stroke="rgb(83.984375%, 83.59375%, 65.818787%)" stroke-opacity="1" stroke-miterlimit="4" d="M 20108.90625 20448.515625 L 20108.90625 23551.484375 L 25604.21875 25526.09375 L 26153.789062 24961.992188 L 26153.789062 24115.703125 L 19559.296875 21858.90625 L 19559.296875 21012.617188 Z M 20108.90625 20448.515625 " transform="matrix(0.1, 0, 0, -0.1, 0, 4067)"/>
<path fill="none" stroke-width="36.4474" stroke-linecap="square" stroke-linejoin="miter" stroke="rgb(83.984375%, 83.59375%, 65.818787%)" stroke-opacity="1" stroke-miterlimit="4" d="M 19559.414062 23833.59375 L 23406.09375 25526.09375 L 26153.789062 22141.015625 L 26153.789062 21294.609375 L 25329.414062 21294.804688 L 22307.109375 25526.09375 L 19834.101562 24397.8125 Z M 19559.414062 23833.59375 " transform="matrix(0.1, 0, 0, -0.1, 0, 4067)"/>
<path fill="none" stroke-width="53.316" stroke-linecap="square" stroke-linejoin="miter" stroke="rgb(83.984375%, 83.59375%, 65.818787%)" stroke-opacity="1" stroke-miterlimit="4" d="M 33084.882812 35895.898438 L 32535.390625 35331.71875 L 31711.09375 35331.71875 L 27864.414062 40409.296875 L 27040.117188 40409.296875 L 26490.585938 39845.195312 L 30077.304688 39845.195312 Z M 33084.882812 35895.898438 " transform="matrix(0.1, 0, 0, -0.1, 0, 4067)"/>
<path fill="none" stroke-width="53.316" stroke-linecap="square" stroke-linejoin="miter" stroke="rgb(83.984375%, 83.59375%, 65.818787%)" stroke-opacity="1" stroke-miterlimit="4" d="M 32535.390625 40409.296875 L 32535.390625 37306.289062 L 27040.117188 35331.71875 L 26490.585938 35895.898438 L 26490.585938 36742.109375 L 33084.882812 38998.90625 L 33084.882812 39845.195312 Z M 32535.390625 40409.296875 " transform="matrix(0.1, 0, 0, -0.1, 0, 4067)"/>
<path fill="none" stroke-width="36.4474" stroke-linecap="square" stroke-linejoin="miter" stroke="rgb(83.984375%, 83.59375%, 65.818787%)" stroke-opacity="1" stroke-miterlimit="4" d="M 33084.882812 37024.21875 L 29238.203125 35331.71875 L 26490.585938 38716.796875 L 26490.585938 39563.085938 L 27314.804688 39563.085938 L 30337.304688 35331.71875 L 32810.195312 36460.117188 Z M 33084.882812 37024.21875 " transform="matrix(0.1, 0, 0, -0.1, 0, 4067)"/>
<path fill="none" stroke-width="53.316" stroke-linecap="square" stroke-linejoin="miter" stroke="rgb(83.984375%, 83.59375%, 65.818787%)" stroke-opacity="1" stroke-miterlimit="4" d="M 32955.898438 35928.984375 L 33505.390625 35364.804688 L 34329.6875 35364.804688 L 38176.40625 40442.5 L 39000.703125 40442.5 L 39550.3125 39878.398438 L 35963.515625 39878.398438 Z M 32955.898438 35928.984375 " transform="matrix(0.1, 0, 0, -0.1, 0, 4067)"/>
<path fill="none" stroke-width="53.316" stroke-linecap="square" stroke-linejoin="miter" stroke="rgb(83.984375%, 83.59375%, 65.818787%)" stroke-opacity="1" stroke-miterlimit="4" d="M 33505.390625 40442.5 L 33505.390625 37339.414062 L 39000.703125 35364.804688 L 39550.3125 35928.984375 L 39550.3125 36775.3125 L 32955.898438 39032.109375 L 32955.898438 39878.398438 Z M 33505.390625 40442.5 " transform="matrix(0.1, 0, 0, -0.1, 0, 4067)"/>
<path fill="none" stroke-width="36.4474" stroke-linecap="square" stroke-linejoin="miter" stroke="rgb(83.984375%, 83.59375%, 65.818787%)" stroke-opacity="1" stroke-miterlimit="4" d="M 32955.898438 37057.382812 L 36802.617188 35364.804688 L 39550.3125 38750 L 39550.195312 39596.289062 L 38726.015625 39596.289062 L 35703.59375 35364.804688 L 33230.703125 36493.203125 Z M 32955.898438 37057.382812 " transform="matrix(0.1, 0, 0, -0.1, 0, 4067)"/>
<path fill="none" stroke-width="53.316" stroke-linecap="square" stroke-linejoin="miter" stroke="rgb(83.984375%, 83.59375%, 65.818787%)" stroke-opacity="1" stroke-miterlimit="4" d="M 33063.398438 34883.515625 L 32513.90625 35447.695312 L 31689.609375 35447.695312 L 27842.890625 30369.882812 L 27018.59375 30369.882812 L 26468.984375 30934.101562 L 30055.703125 30934.101562 Z M 33063.398438 34883.515625 " transform="matrix(0.1, 0, 0, -0.1, 0, 4067)"/>
<path fill="none" stroke-width="53.316" stroke-linecap="square" stroke-linejoin="miter" stroke="rgb(83.984375%, 83.59375%, 65.818787%)" stroke-opacity="1" stroke-miterlimit="4" d="M 32513.90625 30369.882812 L 32513.90625 33473.007812 L 27018.59375 35447.695312 L 26468.984375 34883.515625 L 26468.984375 34037.1875 L 33063.398438 31780.507812 L 33063.398438 30934.101562 Z M 32513.90625 30369.882812 " transform="matrix(0.1, 0, 0, -0.1, 0, 4067)"/>
<path fill="none" stroke-width="36.4474" stroke-linecap="square" stroke-linejoin="miter" stroke="rgb(83.984375%, 83.59375%, 65.818787%)" stroke-opacity="1" stroke-miterlimit="4" d="M 33063.398438 33755 L 29216.71875 35447.695312 L 26468.984375 32062.5 L 26468.984375 31216.210938 L 27293.28125 31216.210938 L 30315.78125 35447.695312 L 32788.710938 34319.296875 Z M 33063.398438 33755 " transform="matrix(0.1, 0, 0, -0.1, 0, 4067)"/>
<path fill="none" stroke-width="53.316" stroke-linecap="square" stroke-linejoin="miter" stroke="rgb(83.984375%, 83.59375%, 65.818787%)" stroke-opacity="1" stroke-miterlimit="4" d="M 32934.296875 34850.390625 L 33483.90625 35414.492188 L 34308.203125 35414.492188 L 38154.882812 30336.796875 L 38979.296875 30336.796875 L 39528.789062 30901.015625 L 35941.992188 30901.015625 Z M 32934.296875 34850.390625 " transform="matrix(0.1, 0, 0, -0.1, 0, 4067)"/>
<path fill="none" stroke-width="53.316" stroke-linecap="square" stroke-linejoin="miter" stroke="rgb(83.984375%, 83.59375%, 65.818787%)" stroke-opacity="1" stroke-miterlimit="4" d="M 33483.90625 30336.796875 L 33483.90625 33439.804688 L 38979.296875 35414.492188 L 39528.789062 34850.390625 L 39528.789062 34004.101562 L 32934.296875 31747.304688 L 32934.296875 30901.015625 Z M 33483.90625 30336.796875 " transform="matrix(0.1, 0, 0, -0.1, 0, 4067)"/>
<path fill="none" stroke-width="36.4474" stroke-linecap="square" stroke-linejoin="miter" stroke="rgb(83.984375%, 83.59375%, 65.818787%)" stroke-opacity="1" stroke-miterlimit="4" d="M 32934.296875 33721.914062 L 36781.09375 35414.492188 L 39528.789062 32029.414062 L 39528.710938 31183.007812 L 38704.414062 31183.085938 L 35681.992188 35414.492188 L 33209.101562 34286.09375 Z M 32934.296875 33721.914062 " transform="matrix(0.1, 0, 0, -0.1, 0, 4067)"/>
<path fill="none" stroke-width="53.316" stroke-linecap="square" stroke-linejoin="miter" stroke="rgb(83.984375%, 83.59375%, 65.818787%)" stroke-opacity="1" stroke-miterlimit="4" d="M 46115.703125 35870.117188 L 45566.210938 35306.015625 L 44741.914062 35306.015625 L 40895.117188 40383.710938 L 40070.898438 40383.710938 L 39521.289062 39819.492188 L 43108.085938 39819.492188 Z M 46115.703125 35870.117188 " transform="matrix(0.1, 0, 0, -0.1, 0, 4067)"/>
<path fill="none" stroke-width="53.316" stroke-linecap="square" stroke-linejoin="miter" stroke="rgb(83.984375%, 83.59375%, 65.818787%)" stroke-opacity="1" stroke-miterlimit="4" d="M 45566.210938 40383.710938 L 45566.210938 37280.703125 L 40070.898438 35306.015625 L 39521.289062 35870.117188 L 39521.289062 36716.40625 L 46115.703125 38973.203125 L 46115.703125 39819.492188 Z M 45566.210938 40383.710938 " transform="matrix(0.1, 0, 0, -0.1, 0, 4067)"/>
<path fill="none" stroke-width="36.4474" stroke-linecap="square" stroke-linejoin="miter" stroke="rgb(83.984375%, 83.59375%, 65.818787%)" stroke-opacity="1" stroke-miterlimit="4" d="M 46115.703125 36998.515625 L 42268.984375 35306.015625 L 39521.289062 38691.09375 L 39521.289062 39537.382812 L 40345.585938 39537.382812 L 43368.085938 35306.015625 L 45841.015625 36434.296875 Z M 46115.703125 36998.515625 " transform="matrix(0.1, 0, 0, -0.1, 0, 4067)"/>
<path fill="none" stroke-width="53.316" stroke-linecap="square" stroke-linejoin="miter" stroke="rgb(83.984375%, 83.59375%, 65.818787%)" stroke-opacity="1" stroke-miterlimit="4" d="M 45986.601562 35903.28125 L 46536.210938 35339.101562 L 47360.507812 35339.101562 L 51207.304688 40416.796875 L 52031.484375 40416.796875 L 52581.015625 39852.617188 L 48994.296875 39852.617188 Z M 45986.601562 35903.28125 " transform="matrix(0.1, 0, 0, -0.1, 0, 4067)"/>
<path fill="none" stroke-width="53.316" stroke-linecap="square" stroke-linejoin="miter" stroke="rgb(83.984375%, 83.59375%, 65.818787%)" stroke-opacity="1" stroke-miterlimit="4" d="M 46536.210938 40416.796875 L 46536.210938 37313.789062 L 52031.484375 35339.101562 L 52581.015625 35903.28125 L 52581.015625 36749.609375 L 45986.601562 39006.289062 L 45986.601562 39852.617188 Z M 46536.210938 40416.796875 " transform="matrix(0.1, 0, 0, -0.1, 0, 4067)"/>
<path fill="none" stroke-width="36.4474" stroke-linecap="square" stroke-linejoin="miter" stroke="rgb(83.984375%, 83.59375%, 65.818787%)" stroke-opacity="1" stroke-miterlimit="4" d="M 45986.601562 37031.601562 L 49833.398438 35339.101562 L 52581.015625 38724.296875 L 52581.015625 39570.585938 L 51756.796875 39570.585938 L 48734.414062 35339.101562 L 46261.40625 36467.382812 Z M 45986.601562 37031.601562 " transform="matrix(0.1, 0, 0, -0.1, 0, 4067)"/>
<path fill="none" stroke-width="53.316" stroke-linecap="square" stroke-linejoin="miter" stroke="rgb(83.984375%, 83.59375%, 65.818787%)" stroke-opacity="1" stroke-miterlimit="4" d="M 46094.21875 34857.8125 L 45544.6875 35421.914062 L 44720.390625 35421.914062 L 40873.59375 30344.21875 L 40049.414062 30344.21875 L 39499.804688 30908.398438 L 43086.601562 30908.398438 Z M 46094.21875 34857.8125 " transform="matrix(0.1, 0, 0, -0.1, 0, 4067)"/>
<path fill="none" stroke-width="53.316" stroke-linecap="square" stroke-linejoin="miter" stroke="rgb(83.984375%, 83.59375%, 65.818787%)" stroke-opacity="1" stroke-miterlimit="4" d="M 45544.6875 30344.21875 L 45544.6875 33447.304688 L 40049.414062 35421.914062 L 39499.804688 34857.8125 L 39499.804688 34011.484375 L 46094.21875 31754.6875 L 46094.21875 30908.398438 Z M 45544.6875 30344.21875 " transform="matrix(0.1, 0, 0, -0.1, 0, 4067)"/>
<path fill="none" stroke-width="36.4474" stroke-linecap="square" stroke-linejoin="miter" stroke="rgb(83.984375%, 83.59375%, 65.818787%)" stroke-opacity="1" stroke-miterlimit="4" d="M 46094.21875 33729.414062 L 42247.5 35421.992188 L 39499.804688 32036.796875 L 39499.804688 31190.507812 L 40324.101562 31190.507812 L 43346.601562 35421.914062 L 45819.492188 34293.59375 Z M 46094.21875 33729.414062 " transform="matrix(0.1, 0, 0, -0.1, 0, 4067)"/>
<path fill="none" stroke-width="53.316" stroke-linecap="square" stroke-linejoin="miter" stroke="rgb(83.984375%, 83.59375%, 65.818787%)" stroke-opacity="1" stroke-miterlimit="4" d="M 45965.117188 34824.609375 L 46514.609375 35388.789062 L 47338.984375 35388.789062 L 51185.703125 30311.09375 L 52010 30311.09375 L 52559.492188 30875.3125 L 48972.8125 30875.3125 Z M 45965.117188 34824.609375 " transform="matrix(0.1, 0, 0, -0.1, 0, 4067)"/>
<path fill="none" stroke-width="53.316" stroke-linecap="square" stroke-linejoin="miter" stroke="rgb(83.984375%, 83.59375%, 65.818787%)" stroke-opacity="1" stroke-miterlimit="4" d="M 46514.609375 30311.09375 L 46514.609375 33414.21875 L 52010 35388.789062 L 52559.492188 34824.609375 L 52559.609375 33978.28125 L 45965.117188 31721.601562 L 45965.117188 30875.3125 Z M 46514.609375 30311.09375 " transform="matrix(0.1, 0, 0, -0.1, 0, 4067)"/>
<path fill="none" stroke-width="36.4474" stroke-linecap="square" stroke-linejoin="miter" stroke="rgb(83.984375%, 83.59375%, 65.818787%)" stroke-opacity="1" stroke-miterlimit="4" d="M 45965.117188 33696.289062 L 49811.914062 35388.789062 L 52559.492188 32003.710938 L 52559.492188 31157.304688 L 51735.3125 31157.382812 L 48712.8125 35388.789062 L 46239.804688 34260.507812 Z M 45965.117188 33696.289062 " transform="matrix(0.1, 0, 0, -0.1, 0, 4067)"/>
<path fill="none" stroke-width="53.316" stroke-linecap="square" stroke-linejoin="miter" stroke="rgb(83.984375%, 83.59375%, 65.818787%)" stroke-opacity="1" stroke-miterlimit="4" d="M 33096.914062 25845.585938 L 32547.304688 25281.40625 L 31723.007812 25281.40625 L 27876.289062 30359.101562 L 27051.914062 30359.101562 L 26502.382812 29794.882812 L 30089.101562 29794.882812 Z M 33096.914062 25845.585938 " transform="matrix(0.1, 0, 0, -0.1, 0, 4067)"/>
<path fill="none" stroke-width="53.316" stroke-linecap="square" stroke-linejoin="miter" stroke="rgb(83.984375%, 83.59375%, 65.818787%)" stroke-opacity="1" stroke-miterlimit="4" d="M 32547.304688 30359.101562 L 32547.304688 27256.09375 L 27051.914062 25281.40625 L 26502.382812 25845.585938 L 26502.382812 26691.796875 L 33096.914062 28948.59375 L 33096.914062 29794.882812 Z M 32547.304688 30359.101562 " transform="matrix(0.1, 0, 0, -0.1, 0, 4067)"/>
<path fill="none" stroke-width="36.4474" stroke-linecap="square" stroke-linejoin="miter" stroke="rgb(83.984375%, 83.59375%, 65.818787%)" stroke-opacity="1" stroke-miterlimit="4" d="M 33096.914062 26973.984375 L 29250.117188 25281.40625 L 26502.382812 28666.484375 L 26502.382812 29512.8125 L 27326.71875 29512.8125 L 30349.101562 25281.40625 L 32822.109375 26409.804688 Z M 33096.914062 26973.984375 " transform="matrix(0.1, 0, 0, -0.1, 0, 4067)"/>
<path fill="none" stroke-width="53.316" stroke-linecap="square" stroke-linejoin="miter" stroke="rgb(83.984375%, 83.59375%, 65.818787%)" stroke-opacity="1" stroke-miterlimit="4" d="M 32967.695312 25878.710938 L 33517.1875 25314.609375 L 34341.601562 25314.609375 L 38188.28125 30392.304688 L 39012.617188 30392.304688 L 39562.1875 29828.085938 L 35975.390625 29828.085938 Z M 32967.695312 25878.710938 " transform="matrix(0.1, 0, 0, -0.1, 0, 4067)"/>
<path fill="none" stroke-width="53.316" stroke-linecap="square" stroke-linejoin="miter" stroke="rgb(83.984375%, 83.59375%, 65.818787%)" stroke-opacity="1" stroke-miterlimit="4" d="M 33517.1875 30392.304688 L 33517.1875 27289.21875 L 39012.617188 25314.609375 L 39562.1875 25878.710938 L 39562.1875 26725 L 32967.695312 28981.796875 L 32967.695312 29828.085938 Z M 33517.1875 30392.304688 " transform="matrix(0.1, 0, 0, -0.1, 0, 4067)"/>
<path fill="none" stroke-width="36.4474" stroke-linecap="square" stroke-linejoin="miter" stroke="rgb(83.984375%, 83.59375%, 65.818787%)" stroke-opacity="1" stroke-miterlimit="4" d="M 32967.695312 27007.109375 L 36814.414062 25314.609375 L 39562.1875 28699.6875 L 39562.1875 29546.015625 L 38737.8125 29546.015625 L 35715.390625 25314.609375 L 33242.5 26442.890625 Z M 32967.695312 27007.109375 " transform="matrix(0.1, 0, 0, -0.1, 0, 4067)"/>
<path fill="none" stroke-width="53.316" stroke-linecap="square" stroke-linejoin="miter" stroke="rgb(83.984375%, 83.59375%, 65.818787%)" stroke-opacity="1" stroke-miterlimit="4" d="M 33075.3125 24833.203125 L 32525.78125 25397.304688 L 31701.484375 25397.304688 L 27854.6875 20319.6875 L 27030.390625 20319.6875 L 26480.898438 20883.90625 L 30067.617188 20883.90625 Z M 33075.3125 24833.203125 " transform="matrix(0.1, 0, 0, -0.1, 0, 4067)"/>
<path fill="none" stroke-width="53.316" stroke-linecap="square" stroke-linejoin="miter" stroke="rgb(83.984375%, 83.59375%, 65.818787%)" stroke-opacity="1" stroke-miterlimit="4" d="M 32525.78125 20319.6875 L 32525.78125 23422.695312 L 27030.390625 25397.304688 L 26480.898438 24833.203125 L 26480.898438 23986.914062 L 33075.3125 21730.195312 L 33075.3125 20883.90625 Z M 32525.78125 20319.6875 " transform="matrix(0.1, 0, 0, -0.1, 0, 4067)"/>
<path fill="none" stroke-width="36.4474" stroke-linecap="square" stroke-linejoin="miter" stroke="rgb(83.984375%, 83.59375%, 65.818787%)" stroke-opacity="1" stroke-miterlimit="4" d="M 33075.3125 23704.804688 L 29228.59375 25397.382812 L 26480.898438 22012.1875 L 26480.898438 21166.015625 L 27305.195312 21165.898438 L 30327.617188 25397.304688 L 32800.585938 24268.984375 Z M 33075.3125 23704.804688 " transform="matrix(0.1, 0, 0, -0.1, 0, 4067)"/>
<path fill="none" stroke-width="53.316" stroke-linecap="square" stroke-linejoin="miter" stroke="rgb(83.984375%, 83.59375%, 65.818787%)" stroke-opacity="1" stroke-miterlimit="4" d="M 32946.210938 24800 L 33495.703125 25364.296875 L 34320 25364.296875 L 38166.796875 20286.601562 L 38991.09375 20286.601562 L 39540.585938 20850.703125 L 35953.90625 20850.703125 Z M 32946.210938 24800 " transform="matrix(0.1, 0, 0, -0.1, 0, 4067)"/>
<path fill="none" stroke-width="53.316" stroke-linecap="square" stroke-linejoin="miter" stroke="rgb(83.984375%, 83.59375%, 65.818787%)" stroke-opacity="1" stroke-miterlimit="4" d="M 33495.703125 20286.601562 L 33495.703125 23389.609375 L 38991.09375 25364.296875 L 39540.585938 24800 L 39540.585938 23953.789062 L 32946.210938 21696.992188 L 32946.210938 20850.703125 Z M 33495.703125 20286.601562 " transform="matrix(0.1, 0, 0, -0.1, 0, 4067)"/>
<path fill="none" stroke-width="36.4474" stroke-linecap="square" stroke-linejoin="miter" stroke="rgb(83.984375%, 83.59375%, 65.818787%)" stroke-opacity="1" stroke-miterlimit="4" d="M 32946.210938 23671.71875 L 36793.007812 25364.21875 L 39540.585938 21979.101562 L 39540.585938 21132.695312 L 38716.289062 21132.890625 L 35693.90625 25364.21875 L 33221.015625 24235.898438 Z M 32946.210938 23671.71875 " transform="matrix(0.1, 0, 0, -0.1, 0, 4067)"/>
<path fill="none" stroke-width="53.316" stroke-linecap="square" stroke-linejoin="miter" stroke="rgb(83.984375%, 83.59375%, 65.818787%)" stroke-opacity="1" stroke-miterlimit="4" d="M 46115.703125 25845.585938 L 45566.210938 25281.40625 L 44741.914062 25281.40625 L 40895.117188 30359.101562 L 40070.78125 30359.101562 L 39521.289062 29794.882812 L 43108.085938 29794.882812 Z M 46115.703125 25845.585938 " transform="matrix(0.1, 0, 0, -0.1, 0, 4067)"/>
<path fill="none" stroke-width="53.316" stroke-linecap="square" stroke-linejoin="miter" stroke="rgb(83.984375%, 83.59375%, 65.818787%)" stroke-opacity="1" stroke-miterlimit="4" d="M 45566.210938 30359.101562 L 45566.210938 27256.09375 L 40070.78125 25281.40625 L 39521.289062 25845.585938 L 39521.289062 26691.796875 L 46115.703125 28948.59375 L 46115.703125 29794.882812 Z M 45566.210938 30359.101562 " transform="matrix(0.1, 0, 0, -0.1, 0, 4067)"/>
<path fill="none" stroke-width="36.4474" stroke-linecap="square" stroke-linejoin="miter" stroke="rgb(83.984375%, 83.59375%, 65.818787%)" stroke-opacity="1" stroke-miterlimit="4" d="M 46115.703125 26973.984375 L 42268.984375 25281.40625 L 39521.289062 28666.484375 L 39521.289062 29512.8125 L 40345.585938 29512.8125 L 43368.085938 25281.40625 L 45841.015625 26409.804688 Z M 46115.703125 26973.984375 " transform="matrix(0.1, 0, 0, -0.1, 0, 4067)"/>
<path fill="none" stroke-width="53.316" stroke-linecap="square" stroke-linejoin="miter" stroke="rgb(83.984375%, 83.59375%, 65.818787%)" stroke-opacity="1" stroke-miterlimit="4" d="M 45986.601562 25878.710938 L 46536.210938 25314.609375 L 47360.507812 25314.609375 L 51207.304688 30392.304688 L 52031.484375 30392.304688 L 52581.015625 29828.085938 L 48994.296875 29828.085938 Z M 45986.601562 25878.710938 " transform="matrix(0.1, 0, 0, -0.1, 0, 4067)"/>
<path fill="none" stroke-width="53.316" stroke-linecap="square" stroke-linejoin="miter" stroke="rgb(83.984375%, 83.59375%, 65.818787%)" stroke-opacity="1" stroke-miterlimit="4" d="M 46536.210938 30392.304688 L 46536.210938 27289.21875 L 52031.484375 25314.609375 L 52581.015625 25878.710938 L 52581.015625 26725 L 45986.601562 28981.796875 L 45986.601562 29828.085938 Z M 46536.210938 30392.304688 " transform="matrix(0.1, 0, 0, -0.1, 0, 4067)"/>
<path fill="none" stroke-width="36.4474" stroke-linecap="square" stroke-linejoin="miter" stroke="rgb(83.984375%, 83.59375%, 65.818787%)" stroke-opacity="1" stroke-miterlimit="4" d="M 45986.601562 27007.109375 L 49833.398438 25314.609375 L 52581.015625 28699.6875 L 52581.015625 29546.015625 L 51756.71875 29546.015625 L 48734.414062 25314.609375 L 46261.40625 26442.890625 Z M 45986.601562 27007.109375 " transform="matrix(0.1, 0, 0, -0.1, 0, 4067)"/>
<path fill="none" stroke-width="53.316" stroke-linecap="square" stroke-linejoin="miter" stroke="rgb(83.984375%, 83.59375%, 65.818787%)" stroke-opacity="1" stroke-miterlimit="4" d="M 46094.21875 24833.203125 L 45544.6875 25397.304688 L 44720.390625 25397.304688 L 40873.59375 20319.6875 L 40049.414062 20319.6875 L 39499.804688 20883.90625 L 43086.601562 20883.90625 Z M 46094.21875 24833.203125 " transform="matrix(0.1, 0, 0, -0.1, 0, 4067)"/>
<path fill="none" stroke-width="53.316" stroke-linecap="square" stroke-linejoin="miter" stroke="rgb(83.984375%, 83.59375%, 65.818787%)" stroke-opacity="1" stroke-miterlimit="4" d="M 45544.6875 20319.6875 L 45544.6875 23422.695312 L 40049.414062 25397.304688 L 39499.804688 24833.203125 L 39499.804688 23986.914062 L 46094.21875 21730.195312 L 46094.21875 20883.90625 Z M 45544.6875 20319.6875 " transform="matrix(0.1, 0, 0, -0.1, 0, 4067)"/>
<path fill="none" stroke-width="36.4474" stroke-linecap="square" stroke-linejoin="miter" stroke="rgb(83.984375%, 83.59375%, 65.818787%)" stroke-opacity="1" stroke-miterlimit="4" d="M 46094.21875 23704.804688 L 42247.5 25397.382812 L 39499.804688 22012.1875 L 39499.804688 21166.015625 L 40324.101562 21165.898438 L 43346.484375 25397.304688 L 45819.492188 24268.984375 Z M 46094.21875 23704.804688 " transform="matrix(0.1, 0, 0, -0.1, 0, 4067)"/>
<path fill="none" stroke-width="53.316" stroke-linecap="square" stroke-linejoin="miter" stroke="rgb(83.984375%, 83.59375%, 65.818787%)" stroke-opacity="1" stroke-miterlimit="4" d="M 45965.117188 24800 L 46514.609375 25364.296875 L 47338.984375 25364.296875 L 51185.703125 20286.601562 L 52010 20286.601562 L 52559.492188 20850.703125 L 48972.8125 20850.703125 Z M 45965.117188 24800 " transform="matrix(0.1, 0, 0, -0.1, 0, 4067)"/>
<path fill="none" stroke-width="53.316" stroke-linecap="square" stroke-linejoin="miter" stroke="rgb(83.984375%, 83.59375%, 65.818787%)" stroke-opacity="1" stroke-miterlimit="4" d="M 46514.609375 20286.601562 L 46514.609375 23389.609375 L 52010 25364.296875 L 52559.492188 24800 L 52559.492188 23953.789062 L 45965.117188 21696.992188 L 45965.117188 20850.703125 Z M 46514.609375 20286.601562 " transform="matrix(0.1, 0, 0, -0.1, 0, 4067)"/>
<path fill="none" stroke-width="36.4474" stroke-linecap="square" stroke-linejoin="miter" stroke="rgb(83.984375%, 83.59375%, 65.818787%)" stroke-opacity="1" stroke-miterlimit="4" d="M 45965.117188 23671.71875 L 49811.914062 25364.21875 L 52559.492188 21979.101562 L 52559.492188 21132.695312 L 51735.3125 21132.890625 L 48712.8125 25364.21875 L 46239.804688 24235.898438 Z M 45965.117188 23671.71875 " transform="matrix(0.1, 0, 0, -0.1, 0, 4067)"/>
<path fill="none" stroke-width="53.316" stroke-linecap="square" stroke-linejoin="miter" stroke="rgb(83.984375%, 83.59375%, 65.818787%)" stroke-opacity="1" stroke-miterlimit="4" d="M 6834.921875 15683.398438 L 6285.390625 15119.21875 L 5461.09375 15119.21875 L 1614.414062 20196.796875 L 790.078125 20196.796875 L 240.546875 19632.695312 L 3827.265625 19632.695312 Z M 6834.921875 15683.398438 " transform="matrix(0.1, 0, 0, -0.1, 0, 4067)"/>
<path fill="none" stroke-width="53.316" stroke-linecap="square" stroke-linejoin="miter" stroke="rgb(83.984375%, 83.59375%, 65.818787%)" stroke-opacity="1" stroke-miterlimit="4" d="M 6285.390625 20196.796875 L 6285.390625 17093.789062 L 790.078125 15119.21875 L 240.546875 15683.398438 L 240.546875 16529.6875 L 6834.921875 18786.40625 L 6834.921875 19632.695312 Z M 6285.390625 20196.796875 " transform="matrix(0.1, 0, 0, -0.1, 0, 4067)"/>
<path fill="none" stroke-width="36.4474" stroke-linecap="square" stroke-linejoin="miter" stroke="rgb(83.984375%, 83.59375%, 65.818787%)" stroke-opacity="1" stroke-miterlimit="4" d="M 6834.921875 16811.71875 L 2988.164062 15119.21875 L 240.546875 18504.296875 L 240.546875 19350.585938 L 1064.804688 19350.585938 L 4087.304688 15119.21875 L 6560.195312 16247.617188 Z M 6834.921875 16811.71875 " transform="matrix(0.1, 0, 0, -0.1, 0, 4067)"/>
<path fill="none" stroke-width="53.316" stroke-linecap="square" stroke-linejoin="miter" stroke="rgb(83.984375%, 83.59375%, 65.818787%)" stroke-opacity="1" stroke-miterlimit="4" d="M 6705.859375 15716.484375 L 7255.390625 15152.304688 L 8079.6875 15152.304688 L 11926.40625 20230 L 12750.703125 20230 L 13300.3125 19665.898438 L 9713.515625 19665.898438 Z M 6705.859375 15716.484375 " transform="matrix(0.1, 0, 0, -0.1, 0, 4067)"/>
<path fill="none" stroke-width="53.316" stroke-linecap="square" stroke-linejoin="miter" stroke="rgb(83.984375%, 83.59375%, 65.818787%)" stroke-opacity="1" stroke-miterlimit="4" d="M 7255.390625 20230 L 7255.390625 17126.992188 L 12750.703125 15152.304688 L 13300.3125 15716.484375 L 13300.3125 16562.8125 L 6705.859375 18819.609375 L 6705.859375 19665.898438 Z M 7255.390625 20230 " transform="matrix(0.1, 0, 0, -0.1, 0, 4067)"/>
<path fill="none" stroke-width="36.4474" stroke-linecap="square" stroke-linejoin="miter" stroke="rgb(83.984375%, 83.59375%, 65.818787%)" stroke-opacity="1" stroke-miterlimit="4" d="M 6705.859375 16844.882812 L 10552.617188 15152.304688 L 13300.3125 18537.5 L 13300.195312 19383.789062 L 12476.015625 19383.789062 L 9453.554688 15152.304688 L 6980.664062 16280.703125 Z M 6705.859375 16844.882812 " transform="matrix(0.1, 0, 0, -0.1, 0, 4067)"/>
<path fill="none" stroke-width="53.316" stroke-linecap="square" stroke-linejoin="miter" stroke="rgb(83.984375%, 83.59375%, 65.818787%)" stroke-opacity="1" stroke-miterlimit="4" d="M 6813.398438 14671.015625 L 6263.867188 15235.195312 L 5439.648438 15235.195312 L 1592.890625 10157.382812 L 768.554688 10157.382812 L 219.023438 10721.601562 L 3805.742188 10721.601562 Z M 6813.398438 14671.015625 " transform="matrix(0.1, 0, 0, -0.1, 0, 4067)"/>
<path fill="none" stroke-width="53.316" stroke-linecap="square" stroke-linejoin="miter" stroke="rgb(83.984375%, 83.59375%, 65.818787%)" stroke-opacity="1" stroke-miterlimit="4" d="M 6263.867188 10157.382812 L 6263.867188 13260.507812 L 768.554688 15235.195312 L 219.023438 14670.898438 L 219.023438 13824.6875 L 6813.398438 11568.007812 L 6813.398438 10721.601562 Z M 6263.867188 10157.382812 " transform="matrix(0.1, 0, 0, -0.1, 0, 4067)"/>
<path fill="none" stroke-width="36.4474" stroke-linecap="square" stroke-linejoin="miter" stroke="rgb(83.984375%, 83.59375%, 65.818787%)" stroke-opacity="1" stroke-miterlimit="4" d="M 6813.398438 13542.5 L 2966.71875 15235.195312 L 219.023438 11850 L 219.023438 11003.710938 L 1043.28125 11003.710938 L 4065.78125 15235.195312 L 6538.671875 14106.796875 Z M 6813.398438 13542.5 " transform="matrix(0.1, 0, 0, -0.1, 0, 4067)"/>
<path fill="none" stroke-width="53.316" stroke-linecap="square" stroke-linejoin="miter" stroke="rgb(83.984375%, 83.59375%, 65.818787%)" stroke-opacity="1" stroke-miterlimit="4" d="M 6684.335938 14637.890625 L 7233.867188 15201.992188 L 8058.164062 15201.992188 L 11904.882812 10124.296875 L 12729.296875 10124.296875 L 13278.789062 10688.515625 L 9691.992188 10688.515625 Z M 6684.335938 14637.890625 " transform="matrix(0.1, 0, 0, -0.1, 0, 4067)"/>
<path fill="none" stroke-width="53.316" stroke-linecap="square" stroke-linejoin="miter" stroke="rgb(83.984375%, 83.59375%, 65.818787%)" stroke-opacity="1" stroke-miterlimit="4" d="M 7233.867188 10124.296875 L 7233.867188 13227.304688 L 12729.296875 15201.992188 L 13278.789062 14637.890625 L 13278.789062 13791.601562 L 6684.335938 11534.804688 L 6684.335938 10688.515625 Z M 7233.867188 10124.296875 " transform="matrix(0.1, 0, 0, -0.1, 0, 4067)"/>
<path fill="none" stroke-width="36.4474" stroke-linecap="square" stroke-linejoin="miter" stroke="rgb(83.984375%, 83.59375%, 65.818787%)" stroke-opacity="1" stroke-miterlimit="4" d="M 6684.335938 13509.414062 L 10531.09375 15201.992188 L 13278.789062 11816.914062 L 13278.710938 10970.507812 L 12454.414062 10970.585938 L 9432.03125 15201.992188 L 6959.140625 14073.59375 Z M 6684.335938 13509.414062 " transform="matrix(0.1, 0, 0, -0.1, 0, 4067)"/>
<path fill="none" stroke-width="53.316" stroke-linecap="square" stroke-linejoin="miter" stroke="rgb(83.984375%, 83.59375%, 65.818787%)" stroke-opacity="1" stroke-miterlimit="4" d="M 19865.703125 15657.617188 L 19316.210938 15093.515625 L 18491.914062 15093.515625 L 14645.117188 20171.210938 L 13820.898438 20171.210938 L 13271.289062 19606.992188 L 16858.085938 19606.992188 Z M 19865.703125 15657.617188 " transform="matrix(0.1, 0, 0, -0.1, 0, 4067)"/>
<path fill="none" stroke-width="53.316" stroke-linecap="square" stroke-linejoin="miter" stroke="rgb(83.984375%, 83.59375%, 65.818787%)" stroke-opacity="1" stroke-miterlimit="4" d="M 19316.210938 20171.210938 L 19316.210938 17068.203125 L 13820.898438 15093.515625 L 13271.289062 15657.617188 L 13271.289062 16503.90625 L 19865.703125 18760.703125 L 19865.703125 19606.992188 Z M 19316.210938 20171.210938 " transform="matrix(0.1, 0, 0, -0.1, 0, 4067)"/>
<path fill="none" stroke-width="36.4474" stroke-linecap="square" stroke-linejoin="miter" stroke="rgb(83.984375%, 83.59375%, 65.818787%)" stroke-opacity="1" stroke-miterlimit="4" d="M 19865.703125 16786.015625 L 16018.984375 15093.515625 L 13271.289062 18478.59375 L 13271.289062 19324.882812 L 14095.585938 19324.882812 L 17118.085938 15093.515625 L 19591.015625 16221.796875 Z M 19865.703125 16786.015625 " transform="matrix(0.1, 0, 0, -0.1, 0, 4067)"/>
<path fill="none" stroke-width="53.316" stroke-linecap="square" stroke-linejoin="miter" stroke="rgb(83.984375%, 83.59375%, 65.818787%)" stroke-opacity="1" stroke-miterlimit="4" d="M 19736.601562 15690.78125 L 20286.210938 15126.601562 L 21110.507812 15126.601562 L 24957.304688 20204.296875 L 25781.484375 20204.296875 L 26331.015625 19640.117188 L 22744.296875 19640.117188 Z M 19736.601562 15690.78125 " transform="matrix(0.1, 0, 0, -0.1, 0, 4067)"/>
<path fill="none" stroke-width="53.316" stroke-linecap="square" stroke-linejoin="miter" stroke="rgb(83.984375%, 83.59375%, 65.818787%)" stroke-opacity="1" stroke-miterlimit="4" d="M 20286.210938 20204.296875 L 20286.210938 17101.210938 L 25781.484375 15126.601562 L 26331.015625 15690.78125 L 26331.015625 16537.109375 L 19736.601562 18793.789062 L 19736.601562 19640.117188 Z M 20286.210938 20204.296875 " transform="matrix(0.1, 0, 0, -0.1, 0, 4067)"/>
<path fill="none" stroke-width="36.4474" stroke-linecap="square" stroke-linejoin="miter" stroke="rgb(83.984375%, 83.59375%, 65.818787%)" stroke-opacity="1" stroke-miterlimit="4" d="M 19736.601562 16819.101562 L 23583.398438 15126.601562 L 26331.015625 18511.796875 L 26331.015625 19358.085938 L 25506.796875 19358.085938 L 22484.414062 15126.601562 L 20011.40625 16254.882812 Z M 19736.601562 16819.101562 " transform="matrix(0.1, 0, 0, -0.1, 0, 4067)"/>
<path fill="none" stroke-width="53.316" stroke-linecap="square" stroke-linejoin="miter" stroke="rgb(83.984375%, 83.59375%, 65.818787%)" stroke-opacity="1" stroke-miterlimit="4" d="M 19844.21875 14645.3125 L 19294.6875 15209.414062 L 18470.390625 15209.414062 L 14623.59375 10131.71875 L 13799.414062 10131.71875 L 13249.804688 10695.898438 L 16836.601562 10695.898438 Z M 19844.21875 14645.3125 " transform="matrix(0.1, 0, 0, -0.1, 0, 4067)"/>
<path fill="none" stroke-width="53.316" stroke-linecap="square" stroke-linejoin="miter" stroke="rgb(83.984375%, 83.59375%, 65.818787%)" stroke-opacity="1" stroke-miterlimit="4" d="M 19294.6875 10131.71875 L 19294.6875 13234.804688 L 13799.414062 15209.414062 L 13249.804688 14645.3125 L 13249.804688 13798.984375 L 19844.21875 11542.1875 L 19844.21875 10695.898438 Z M 19294.6875 10131.71875 " transform="matrix(0.1, 0, 0, -0.1, 0, 4067)"/>
<path fill="none" stroke-width="36.4474" stroke-linecap="square" stroke-linejoin="miter" stroke="rgb(83.984375%, 83.59375%, 65.818787%)" stroke-opacity="1" stroke-miterlimit="4" d="M 19844.21875 13516.914062 L 15997.5 15209.492188 L 13249.804688 11824.296875 L 13249.804688 10978.007812 L 14074.101562 10978.007812 L 17096.484375 15209.414062 L 19569.492188 14081.09375 Z M 19844.21875 13516.914062 " transform="matrix(0.1, 0, 0, -0.1, 0, 4067)"/>
<path fill="none" stroke-width="53.316" stroke-linecap="square" stroke-linejoin="miter" stroke="rgb(83.984375%, 83.59375%, 65.818787%)" stroke-opacity="1" stroke-miterlimit="4" d="M 19715.117188 14612.109375 L 20264.6875 15176.289062 L 21088.984375 15176.289062 L 24935.703125 10098.59375 L 25760 10098.59375 L 26309.492188 10662.8125 L 22722.8125 10662.8125 Z M 19715.117188 14612.109375 " transform="matrix(0.1, 0, 0, -0.1, 0, 4067)"/>
<path fill="none" stroke-width="53.316" stroke-linecap="square" stroke-linejoin="miter" stroke="rgb(83.984375%, 83.59375%, 65.818787%)" stroke-opacity="1" stroke-miterlimit="4" d="M 20264.6875 10098.59375 L 20264.6875 13201.71875 L 25760 15176.289062 L 26309.492188 14612.109375 L 26309.609375 13765.78125 L 19715.117188 11509.101562 L 19715.117188 10662.8125 Z M 20264.6875 10098.59375 " transform="matrix(0.1, 0, 0, -0.1, 0, 4067)"/>
<path fill="none" stroke-width="36.4474" stroke-linecap="square" stroke-linejoin="miter" stroke="rgb(83.984375%, 83.59375%, 65.818787%)" stroke-opacity="1" stroke-miterlimit="4" d="M 19715.117188 13483.789062 L 23561.914062 15176.289062 L 26309.492188 11791.210938 L 26309.492188 10944.804688 L 25485.3125 10944.804688 L 22462.8125 15176.289062 L 19989.804688 14048.007812 Z M 19715.117188 13483.789062 " transform="matrix(0.1, 0, 0, -0.1, 0, 4067)"/>
<path fill="none" stroke-width="53.316" stroke-linecap="square" stroke-linejoin="miter" stroke="rgb(83.984375%, 83.59375%, 65.818787%)" stroke-opacity="1" stroke-miterlimit="4" d="M 6846.875 5633.125 L 6297.34375 5068.90625 L 5473.007812 5068.90625 L 1626.25 10146.601562 L 801.914062 10146.601562 L 252.421875 9582.421875 L 3839.140625 9582.421875 Z M 6846.875 5633.125 " transform="matrix(0.1, 0, 0, -0.1, 0, 4067)"/>
<path fill="none" stroke-width="53.316" stroke-linecap="square" stroke-linejoin="miter" stroke="rgb(83.984375%, 83.59375%, 65.818787%)" stroke-opacity="1" stroke-miterlimit="4" d="M 6297.34375 10146.601562 L 6297.34375 7043.59375 L 801.914062 5068.90625 L 252.421875 5633.046875 L 252.421875 6479.335938 L 6846.875 8736.09375 L 6846.875 9582.421875 Z M 6297.34375 10146.601562 " transform="matrix(0.1, 0, 0, -0.1, 0, 4067)"/>
<path fill="none" stroke-width="36.4474" stroke-linecap="square" stroke-linejoin="miter" stroke="rgb(83.984375%, 83.59375%, 65.818787%)" stroke-opacity="1" stroke-miterlimit="4" d="M 6846.875 6761.484375 L 3000.117188 5068.90625 L 252.421875 8454.023438 L 252.421875 9300.3125 L 1076.71875 9300.3125 L 4099.140625 5068.90625 L 6572.070312 6197.265625 Z M 6846.875 6761.484375 " transform="matrix(0.1, 0, 0, -0.1, 0, 4067)"/>
<path fill="none" stroke-width="53.316" stroke-linecap="square" stroke-linejoin="miter" stroke="rgb(83.984375%, 83.59375%, 65.818787%)" stroke-opacity="1" stroke-miterlimit="4" d="M 6717.695312 5666.210938 L 7267.226562 5102.070312 L 8091.5625 5102.070312 L 11938.28125 10179.804688 L 12762.617188 10179.804688 L 13312.109375 9615.546875 L 9725.429688 9615.546875 Z M 6717.695312 5666.210938 " transform="matrix(0.1, 0, 0, -0.1, 0, 4067)"/>
<path fill="none" stroke-width="53.316" stroke-linecap="square" stroke-linejoin="miter" stroke="rgb(83.984375%, 83.59375%, 65.818787%)" stroke-opacity="1" stroke-miterlimit="4" d="M 7267.226562 10179.804688 L 7267.226562 7076.71875 L 12762.617188 5102.070312 L 13312.109375 5666.210938 L 13312.109375 6512.5 L 6717.695312 8769.257812 L 6717.695312 9615.546875 Z M 7267.226562 10179.804688 " transform="matrix(0.1, 0, 0, -0.1, 0, 4067)"/>
<path fill="none" stroke-width="36.4474" stroke-linecap="square" stroke-linejoin="miter" stroke="rgb(83.984375%, 83.59375%, 65.818787%)" stroke-opacity="1" stroke-miterlimit="4" d="M 6717.695312 6794.648438 L 10564.414062 5102.070312 L 13312.109375 8487.1875 L 13312.109375 9333.476562 L 12487.8125 9333.476562 L 9465.390625 5102.070312 L 6992.5 6230.429688 Z M 6717.695312 6794.648438 " transform="matrix(0.1, 0, 0, -0.1, 0, 4067)"/>
<path fill="none" stroke-width="53.316" stroke-linecap="square" stroke-linejoin="miter" stroke="rgb(83.984375%, 83.59375%, 65.818787%)" stroke-opacity="1" stroke-miterlimit="4" d="M 6825.3125 4620.703125 L 6275.820312 5184.84375 L 5451.484375 5184.84375 L 1604.726562 107.1875 L 780.390625 107.1875 L 230.898438 671.367188 L 3817.617188 671.367188 Z M 6825.3125 4620.703125 " transform="matrix(0.1, 0, 0, -0.1, 0, 4067)"/>
<path fill="none" stroke-width="53.316" stroke-linecap="square" stroke-linejoin="miter" stroke="rgb(83.984375%, 83.59375%, 65.818787%)" stroke-opacity="1" stroke-miterlimit="4" d="M 6275.820312 107.1875 L 6275.820312 3210.234375 L 780.390625 5184.84375 L 230.898438 4620.703125 L 230.898438 3774.414062 L 6825.3125 1517.65625 L 6825.3125 671.367188 Z M 6275.820312 107.1875 " transform="matrix(0.1, 0, 0, -0.1, 0, 4067)"/>
<path fill="none" stroke-width="36.4474" stroke-linecap="square" stroke-linejoin="miter" stroke="rgb(83.984375%, 83.59375%, 65.818787%)" stroke-opacity="1" stroke-miterlimit="4" d="M 6825.3125 3492.34375 L 2978.59375 5184.921875 L 230.898438 1799.726562 L 230.898438 953.515625 L 1055.195312 953.4375 L 4077.617188 5184.84375 L 6550.546875 4056.484375 Z M 6825.3125 3492.34375 " transform="matrix(0.1, 0, 0, -0.1, 0, 4067)"/>
<path fill="none" stroke-width="53.316" stroke-linecap="square" stroke-linejoin="miter" stroke="rgb(83.984375%, 83.59375%, 65.818787%)" stroke-opacity="1" stroke-miterlimit="4" d="M 6696.171875 4587.539062 L 7245.703125 5151.796875 L 8070.039062 5151.71875 L 11916.796875 74.0625 L 12741.09375 74.0625 L 13290.585938 638.203125 L 9703.90625 638.203125 Z M 6696.171875 4587.539062 " transform="matrix(0.1, 0, 0, -0.1, 0, 4067)"/>
<path fill="none" stroke-width="53.316" stroke-linecap="square" stroke-linejoin="miter" stroke="rgb(83.984375%, 83.59375%, 65.818787%)" stroke-opacity="1" stroke-miterlimit="4" d="M 7245.703125 74.0625 L 7245.703125 3177.109375 L 12741.09375 5151.796875 L 13290.585938 4587.539062 L 13290.585938 3741.25 L 6696.171875 1484.492188 L 6696.171875 638.203125 Z M 7245.703125 74.0625 " transform="matrix(0.1, 0, 0, -0.1, 0, 4067)"/>
<path fill="none" stroke-width="36.4474" stroke-linecap="square" stroke-linejoin="miter" stroke="rgb(83.984375%, 83.59375%, 65.818787%)" stroke-opacity="1" stroke-miterlimit="4" d="M 6696.171875 3459.179688 L 10543.007812 5151.71875 L 13290.585938 1766.5625 L 13290.585938 920.195312 L 12466.289062 920.351562 L 9443.867188 5151.71875 L 6970.976562 4023.398438 Z M 6696.171875 3459.179688 " transform="matrix(0.1, 0, 0, -0.1, 0, 4067)"/>
<path fill="none" stroke-width="53.316" stroke-linecap="square" stroke-linejoin="miter" stroke="rgb(83.984375%, 83.59375%, 65.818787%)" stroke-opacity="1" stroke-miterlimit="4" d="M 19865.703125 5633.125 L 19316.210938 5068.90625 L 18491.914062 5068.90625 L 14645.117188 10146.601562 L 13820.78125 10146.601562 L 13271.289062 9582.421875 L 16858.085938 9582.421875 Z M 19865.703125 5633.125 " transform="matrix(0.1, 0, 0, -0.1, 0, 4067)"/>
<path fill="none" stroke-width="53.316" stroke-linecap="square" stroke-linejoin="miter" stroke="rgb(83.984375%, 83.59375%, 65.818787%)" stroke-opacity="1" stroke-miterlimit="4" d="M 19316.210938 10146.601562 L 19316.210938 7043.59375 L 13820.898438 5068.90625 L 13271.289062 5633.125 L 13271.289062 6479.335938 L 19865.703125 8736.09375 L 19865.703125 9582.421875 Z M 19316.210938 10146.601562 " transform="matrix(0.1, 0, 0, -0.1, 0, 4067)"/>
<path fill="none" stroke-width="36.4474" stroke-linecap="square" stroke-linejoin="miter" stroke="rgb(83.984375%, 83.59375%, 65.818787%)" stroke-opacity="1" stroke-miterlimit="4" d="M 19865.703125 6761.484375 L 16018.984375 5068.90625 L 13271.289062 8454.023438 L 13271.289062 9300.3125 L 14095.585938 9300.3125 L 17118.085938 5068.90625 L 19590.898438 6197.265625 Z M 19865.703125 6761.484375 " transform="matrix(0.1, 0, 0, -0.1, 0, 4067)"/>
<path fill="none" stroke-width="53.316" stroke-linecap="square" stroke-linejoin="miter" stroke="rgb(83.984375%, 83.59375%, 65.818787%)" stroke-opacity="1" stroke-miterlimit="4" d="M 19736.601562 5666.210938 L 20286.210938 5102.070312 L 21110.507812 5102.070312 L 24957.304688 10179.804688 L 25781.484375 10179.804688 L 26331.015625 9615.546875 L 22744.296875 9615.546875 Z M 19736.601562 5666.210938 " transform="matrix(0.1, 0, 0, -0.1, 0, 4067)"/>
<path fill="none" stroke-width="53.316" stroke-linecap="square" stroke-linejoin="miter" stroke="rgb(83.984375%, 83.59375%, 65.818787%)" stroke-opacity="1" stroke-miterlimit="4" d="M 20286.210938 10179.804688 L 20286.210938 7076.71875 L 25781.484375 5102.070312 L 26331.015625 5666.210938 L 26331.015625 6512.5 L 19736.601562 8769.257812 L 19736.601562 9615.546875 Z M 20286.210938 10179.804688 " transform="matrix(0.1, 0, 0, -0.1, 0, 4067)"/>
<path fill="none" stroke-width="36.4474" stroke-linecap="square" stroke-linejoin="miter" stroke="rgb(83.984375%, 83.59375%, 65.818787%)" stroke-opacity="1" stroke-miterlimit="4" d="M 19736.601562 6794.648438 L 23583.398438 5102.070312 L 26331.015625 8487.1875 L 26331.015625 9333.476562 L 25506.71875 9333.476562 L 22484.414062 5102.070312 L 20011.40625 6230.429688 Z M 19736.601562 6794.648438 " transform="matrix(0.1, 0, 0, -0.1, 0, 4067)"/>
<path fill="none" stroke-width="53.316" stroke-linecap="square" stroke-linejoin="miter" stroke="rgb(83.984375%, 83.59375%, 65.818787%)" stroke-opacity="1" stroke-miterlimit="4" d="M 19844.21875 4620.703125 L 19294.6875 5184.84375 L 18470.390625 5184.84375 L 14623.59375 107.1875 L 13799.414062 107.1875 L 13249.804688 671.367188 L 16836.601562 671.367188 Z M 19844.21875 4620.703125 " transform="matrix(0.1, 0, 0, -0.1, 0, 4067)"/>
<path fill="none" stroke-width="53.316" stroke-linecap="square" stroke-linejoin="miter" stroke="rgb(83.984375%, 83.59375%, 65.818787%)" stroke-opacity="1" stroke-miterlimit="4" d="M 19294.6875 107.1875 L 19294.6875 3210.234375 L 13799.414062 5184.84375 L 13249.804688 4620.703125 L 13249.804688 3774.414062 L 19844.21875 1517.65625 L 19844.21875 671.367188 Z M 19294.6875 107.1875 " transform="matrix(0.1, 0, 0, -0.1, 0, 4067)"/>
<path fill="none" stroke-width="36.4474" stroke-linecap="square" stroke-linejoin="miter" stroke="rgb(83.984375%, 83.59375%, 65.818787%)" stroke-opacity="1" stroke-miterlimit="4" d="M 19844.21875 3492.34375 L 15997.5 5184.921875 L 13249.804688 1799.726562 L 13249.804688 953.515625 L 14074.101562 953.4375 L 17096.484375 5184.84375 L 19569.492188 4056.484375 Z M 19844.21875 3492.34375 " transform="matrix(0.1, 0, 0, -0.1, 0, 4067)"/>
<path fill="none" stroke-width="53.316" stroke-linecap="square" stroke-linejoin="miter" stroke="rgb(83.984375%, 83.59375%, 65.818787%)" stroke-opacity="1" stroke-miterlimit="4" d="M 19715.117188 4587.539062 L 20264.6875 5151.796875 L 21088.984375 5151.796875 L 24935.703125 74.0625 L 25760 74.0625 L 26309.492188 638.203125 L 22722.8125 638.203125 Z M 19715.117188 4587.539062 " transform="matrix(0.1, 0, 0, -0.1, 0, 4067)"/>
<path fill="none" stroke-width="53.316" stroke-linecap="square" stroke-linejoin="miter" stroke="rgb(83.984375%, 83.59375%, 65.818787%)" stroke-opacity="1" stroke-miterlimit="4" d="M 20264.6875 74.0625 L 20264.6875 3177.109375 L 25760 5151.796875 L 26309.492188 4587.539062 L 26309.492188 3741.25 L 19715.117188 1484.492188 L 19715.117188 638.203125 Z M 20264.6875 74.0625 " transform="matrix(0.1, 0, 0, -0.1, 0, 4067)"/>
<path fill="none" stroke-width="36.4474" stroke-linecap="square" stroke-linejoin="miter" stroke="rgb(83.984375%, 83.59375%, 65.818787%)" stroke-opacity="1" stroke-miterlimit="4" d="M 19715.117188 3459.179688 L 23561.914062 5151.71875 L 26309.492188 1766.5625 L 26309.492188 920.195312 L 25485.3125 920.351562 L 22462.8125 5151.71875 L 19989.804688 4023.398438 Z M 19715.117188 3459.179688 " transform="matrix(0.1, 0, 0, -0.1, 0, 4067)"/>
<path fill="none" stroke-width="53.316" stroke-linecap="square" stroke-linejoin="miter" stroke="rgb(83.984375%, 83.59375%, 65.818787%)" stroke-opacity="1" stroke-miterlimit="4" d="M 33084.882812 15683.398438 L 32535.390625 15119.21875 L 31711.09375 15119.21875 L 27864.414062 20196.796875 L 27040.117188 20196.796875 L 26490.585938 19632.695312 L 30077.304688 19632.695312 Z M 33084.882812 15683.398438 " transform="matrix(0.1, 0, 0, -0.1, 0, 4067)"/>
<path fill="none" stroke-width="53.316" stroke-linecap="square" stroke-linejoin="miter" stroke="rgb(83.984375%, 83.59375%, 65.818787%)" stroke-opacity="1" stroke-miterlimit="4" d="M 32535.390625 20196.796875 L 32535.390625 17093.789062 L 27040.117188 15119.21875 L 26490.585938 15683.398438 L 26490.585938 16529.6875 L 33084.882812 18786.40625 L 33084.882812 19632.695312 Z M 32535.390625 20196.796875 " transform="matrix(0.1, 0, 0, -0.1, 0, 4067)"/>
<path fill="none" stroke-width="36.4474" stroke-linecap="square" stroke-linejoin="miter" stroke="rgb(83.984375%, 83.59375%, 65.818787%)" stroke-opacity="1" stroke-miterlimit="4" d="M 33084.882812 16811.71875 L 29238.203125 15119.21875 L 26490.585938 18504.296875 L 26490.585938 19350.585938 L 27314.804688 19350.585938 L 30337.304688 15119.21875 L 32810.195312 16247.617188 Z M 33084.882812 16811.71875 " transform="matrix(0.1, 0, 0, -0.1, 0, 4067)"/>
<path fill="none" stroke-width="53.316" stroke-linecap="square" stroke-linejoin="miter" stroke="rgb(83.984375%, 83.59375%, 65.818787%)" stroke-opacity="1" stroke-miterlimit="4" d="M 32955.898438 15716.484375 L 33505.390625 15152.304688 L 34329.6875 15152.304688 L 38176.40625 20230 L 39000.703125 20230 L 39550.3125 19665.898438 L 35963.515625 19665.898438 Z M 32955.898438 15716.484375 " transform="matrix(0.1, 0, 0, -0.1, 0, 4067)"/>
<path fill="none" stroke-width="53.316" stroke-linecap="square" stroke-linejoin="miter" stroke="rgb(83.984375%, 83.59375%, 65.818787%)" stroke-opacity="1" stroke-miterlimit="4" d="M 33505.390625 20230 L 33505.390625 17126.992188 L 39000.703125 15152.304688 L 39550.3125 15716.484375 L 39550.3125 16562.8125 L 32955.898438 18819.609375 L 32955.898438 19665.898438 Z M 33505.390625 20230 " transform="matrix(0.1, 0, 0, -0.1, 0, 4067)"/>
<path fill="none" stroke-width="36.4474" stroke-linecap="square" stroke-linejoin="miter" stroke="rgb(83.984375%, 83.59375%, 65.818787%)" stroke-opacity="1" stroke-miterlimit="4" d="M 32955.898438 16844.882812 L 36802.617188 15152.304688 L 39550.3125 18537.5 L 39550.195312 19383.789062 L 38726.015625 19383.789062 L 35703.59375 15152.304688 L 33230.703125 16280.703125 Z M 32955.898438 16844.882812 " transform="matrix(0.1, 0, 0, -0.1, 0, 4067)"/>
<path fill="none" stroke-width="53.316" stroke-linecap="square" stroke-linejoin="miter" stroke="rgb(83.984375%, 83.59375%, 65.818787%)" stroke-opacity="1" stroke-miterlimit="4" d="M 33063.398438 14671.015625 L 32513.90625 15235.195312 L 31689.609375 15235.195312 L 27842.890625 10157.382812 L 27018.59375 10157.382812 L 26468.984375 10721.601562 L 30055.703125 10721.601562 Z M 33063.398438 14671.015625 " transform="matrix(0.1, 0, 0, -0.1, 0, 4067)"/>
<path fill="none" stroke-width="53.316" stroke-linecap="square" stroke-linejoin="miter" stroke="rgb(83.984375%, 83.59375%, 65.818787%)" stroke-opacity="1" stroke-miterlimit="4" d="M 32513.90625 10157.382812 L 32513.90625 13260.507812 L 27018.59375 15235.195312 L 26468.984375 14670.898438 L 26468.984375 13824.6875 L 33063.398438 11568.007812 L 33063.398438 10721.601562 Z M 32513.90625 10157.382812 " transform="matrix(0.1, 0, 0, -0.1, 0, 4067)"/>
<path fill="none" stroke-width="36.4474" stroke-linecap="square" stroke-linejoin="miter" stroke="rgb(83.984375%, 83.59375%, 65.818787%)" stroke-opacity="1" stroke-miterlimit="4" d="M 33063.398438 13542.5 L 29216.71875 15235.195312 L 26468.984375 11850 L 26468.984375 11003.710938 L 27293.28125 11003.710938 L 30315.78125 15235.195312 L 32788.710938 14106.796875 Z M 33063.398438 13542.5 " transform="matrix(0.1, 0, 0, -0.1, 0, 4067)"/>
<path fill="none" stroke-width="53.316" stroke-linecap="square" stroke-linejoin="miter" stroke="rgb(83.984375%, 83.59375%, 65.818787%)" stroke-opacity="1" stroke-miterlimit="4" d="M 32934.296875 14637.890625 L 33483.90625 15201.992188 L 34308.203125 15201.992188 L 38154.882812 10124.296875 L 38979.296875 10124.296875 L 39528.789062 10688.515625 L 35941.992188 10688.515625 Z M 32934.296875 14637.890625 " transform="matrix(0.1, 0, 0, -0.1, 0, 4067)"/>
<path fill="none" stroke-width="53.316" stroke-linecap="square" stroke-linejoin="miter" stroke="rgb(83.984375%, 83.59375%, 65.818787%)" stroke-opacity="1" stroke-miterlimit="4" d="M 33483.90625 10124.296875 L 33483.90625 13227.304688 L 38979.296875 15201.992188 L 39528.789062 14637.890625 L 39528.789062 13791.601562 L 32934.296875 11534.804688 L 32934.296875 10688.515625 Z M 33483.90625 10124.296875 " transform="matrix(0.1, 0, 0, -0.1, 0, 4067)"/>
<path fill="none" stroke-width="36.4474" stroke-linecap="square" stroke-linejoin="miter" stroke="rgb(83.984375%, 83.59375%, 65.818787%)" stroke-opacity="1" stroke-miterlimit="4" d="M 32934.296875 13509.414062 L 36781.09375 15201.992188 L 39528.789062 11816.914062 L 39528.710938 10970.507812 L 38704.414062 10970.585938 L 35681.992188 15201.992188 L 33209.101562 14073.59375 Z M 32934.296875 13509.414062 " transform="matrix(0.1, 0, 0, -0.1, 0, 4067)"/>
<path fill="none" stroke-width="53.316" stroke-linecap="square" stroke-linejoin="miter" stroke="rgb(83.984375%, 83.59375%, 65.818787%)" stroke-opacity="1" stroke-miterlimit="4" d="M 46115.703125 15657.617188 L 45566.210938 15093.515625 L 44741.914062 15093.515625 L 40895.117188 20171.210938 L 40070.898438 20171.210938 L 39521.289062 19606.992188 L 43108.085938 19606.992188 Z M 46115.703125 15657.617188 " transform="matrix(0.1, 0, 0, -0.1, 0, 4067)"/>
<path fill="none" stroke-width="53.316" stroke-linecap="square" stroke-linejoin="miter" stroke="rgb(83.984375%, 83.59375%, 65.818787%)" stroke-opacity="1" stroke-miterlimit="4" d="M 45566.210938 20171.210938 L 45566.210938 17068.203125 L 40070.898438 15093.515625 L 39521.289062 15657.617188 L 39521.289062 16503.90625 L 46115.703125 18760.703125 L 46115.703125 19606.992188 Z M 45566.210938 20171.210938 " transform="matrix(0.1, 0, 0, -0.1, 0, 4067)"/>
<path fill="none" stroke-width="36.4474" stroke-linecap="square" stroke-linejoin="miter" stroke="rgb(83.984375%, 83.59375%, 65.818787%)" stroke-opacity="1" stroke-miterlimit="4" d="M 46115.703125 16786.015625 L 42268.984375 15093.515625 L 39521.289062 18478.59375 L 39521.289062 19324.882812 L 40345.585938 19324.882812 L 43368.085938 15093.515625 L 45841.015625 16221.796875 Z M 46115.703125 16786.015625 " transform="matrix(0.1, 0, 0, -0.1, 0, 4067)"/>
<path fill="none" stroke-width="53.316" stroke-linecap="square" stroke-linejoin="miter" stroke="rgb(83.984375%, 83.59375%, 65.818787%)" stroke-opacity="1" stroke-miterlimit="4" d="M 45986.601562 15690.78125 L 46536.210938 15126.601562 L 47360.507812 15126.601562 L 51207.304688 20204.296875 L 52031.484375 20204.296875 L 52581.015625 19640.117188 L 48994.296875 19640.117188 Z M 45986.601562 15690.78125 " transform="matrix(0.1, 0, 0, -0.1, 0, 4067)"/>
<path fill="none" stroke-width="53.316" stroke-linecap="square" stroke-linejoin="miter" stroke="rgb(83.984375%, 83.59375%, 65.818787%)" stroke-opacity="1" stroke-miterlimit="4" d="M 46536.210938 20204.296875 L 46536.210938 17101.210938 L 52031.484375 15126.601562 L 52581.015625 15690.78125 L 52581.015625 16537.109375 L 45986.601562 18793.789062 L 45986.601562 19640.117188 Z M 46536.210938 20204.296875 " transform="matrix(0.1, 0, 0, -0.1, 0, 4067)"/>
<path fill="none" stroke-width="36.4474" stroke-linecap="square" stroke-linejoin="miter" stroke="rgb(83.984375%, 83.59375%, 65.818787%)" stroke-opacity="1" stroke-miterlimit="4" d="M 45986.601562 16819.101562 L 49833.398438 15126.601562 L 52581.015625 18511.796875 L 52581.015625 19358.085938 L 51756.796875 19358.085938 L 48734.414062 15126.601562 L 46261.40625 16254.882812 Z M 45986.601562 16819.101562 " transform="matrix(0.1, 0, 0, -0.1, 0, 4067)"/>
<path fill="none" stroke-width="53.316" stroke-linecap="square" stroke-linejoin="miter" stroke="rgb(83.984375%, 83.59375%, 65.818787%)" stroke-opacity="1" stroke-miterlimit="4" d="M 46094.21875 14645.3125 L 45544.6875 15209.414062 L 44720.390625 15209.414062 L 40873.59375 10131.71875 L 40049.414062 10131.71875 L 39499.804688 10695.898438 L 43086.601562 10695.898438 Z M 46094.21875 14645.3125 " transform="matrix(0.1, 0, 0, -0.1, 0, 4067)"/>
<path fill="none" stroke-width="53.316" stroke-linecap="square" stroke-linejoin="miter" stroke="rgb(83.984375%, 83.59375%, 65.818787%)" stroke-opacity="1" stroke-miterlimit="4" d="M 45544.6875 10131.71875 L 45544.6875 13234.804688 L 40049.414062 15209.414062 L 39499.804688 14645.3125 L 39499.804688 13798.984375 L 46094.21875 11542.1875 L 46094.21875 10695.898438 Z M 45544.6875 10131.71875 " transform="matrix(0.1, 0, 0, -0.1, 0, 4067)"/>
<path fill="none" stroke-width="36.4474" stroke-linecap="square" stroke-linejoin="miter" stroke="rgb(83.984375%, 83.59375%, 65.818787%)" stroke-opacity="1" stroke-miterlimit="4" d="M 46094.21875 13516.914062 L 42247.5 15209.492188 L 39499.804688 11824.296875 L 39499.804688 10978.007812 L 40324.101562 10978.007812 L 43346.601562 15209.414062 L 45819.492188 14081.09375 Z M 46094.21875 13516.914062 " transform="matrix(0.1, 0, 0, -0.1, 0, 4067)"/>
<path fill="none" stroke-width="53.316" stroke-linecap="square" stroke-linejoin="miter" stroke="rgb(83.984375%, 83.59375%, 65.818787%)" stroke-opacity="1" stroke-miterlimit="4" d="M 45965.117188 14612.109375 L 46514.609375 15176.289062 L 47338.984375 15176.289062 L 51185.703125 10098.59375 L 52010 10098.59375 L 52559.492188 10662.8125 L 48972.8125 10662.8125 Z M 45965.117188 14612.109375 " transform="matrix(0.1, 0, 0, -0.1, 0, 4067)"/>
<path fill="none" stroke-width="53.316" stroke-linecap="square" stroke-linejoin="miter" stroke="rgb(83.984375%, 83.59375%, 65.818787%)" stroke-opacity="1" stroke-miterlimit="4" d="M 46514.609375 10098.59375 L 46514.609375 13201.71875 L 52010 15176.289062 L 52559.492188 14612.109375 L 52559.609375 13765.78125 L 45965.117188 11509.101562 L 45965.117188 10662.8125 Z M 46514.609375 10098.59375 " transform="matrix(0.1, 0, 0, -0.1, 0, 4067)"/>
<path fill="none" stroke-width="36.4474" stroke-linecap="square" stroke-linejoin="miter" stroke="rgb(83.984375%, 83.59375%, 65.818787%)" stroke-opacity="1" stroke-miterlimit="4" d="M 45965.117188 13483.789062 L 49811.914062 15176.289062 L 52559.492188 11791.210938 L 52559.492188 10944.804688 L 51735.3125 10944.804688 L 48712.8125 15176.289062 L 46239.804688 14048.007812 Z M 45965.117188 13483.789062 " transform="matrix(0.1, 0, 0, -0.1, 0, 4067)"/>
<path fill="none" stroke-width="53.316" stroke-linecap="square" stroke-linejoin="miter" stroke="rgb(83.984375%, 83.59375%, 65.818787%)" stroke-opacity="1" stroke-miterlimit="4" d="M 33096.914062 5633.125 L 32547.304688 5068.90625 L 31723.007812 5068.90625 L 27876.289062 10146.601562 L 27051.914062 10146.601562 L 26502.382812 9582.421875 L 30089.101562 9582.421875 Z M 33096.914062 5633.125 " transform="matrix(0.1, 0, 0, -0.1, 0, 4067)"/>
<path fill="none" stroke-width="53.316" stroke-linecap="square" stroke-linejoin="miter" stroke="rgb(83.984375%, 83.59375%, 65.818787%)" stroke-opacity="1" stroke-miterlimit="4" d="M 32547.304688 10146.601562 L 32547.304688 7043.59375 L 27051.914062 5068.90625 L 26502.382812 5633.046875 L 26502.382812 6479.335938 L 33096.914062 8736.09375 L 33096.914062 9582.421875 Z M 32547.304688 10146.601562 " transform="matrix(0.1, 0, 0, -0.1, 0, 4067)"/>
<path fill="none" stroke-width="36.4474" stroke-linecap="square" stroke-linejoin="miter" stroke="rgb(83.984375%, 83.59375%, 65.818787%)" stroke-opacity="1" stroke-miterlimit="4" d="M 33096.914062 6761.484375 L 29250.117188 5068.90625 L 26502.382812 8454.023438 L 26502.382812 9300.3125 L 27326.71875 9300.3125 L 30349.101562 5068.90625 L 32822.109375 6197.265625 Z M 33096.914062 6761.484375 " transform="matrix(0.1, 0, 0, -0.1, 0, 4067)"/>
<path fill="none" stroke-width="53.316" stroke-linecap="square" stroke-linejoin="miter" stroke="rgb(83.984375%, 83.59375%, 65.818787%)" stroke-opacity="1" stroke-miterlimit="4" d="M 32967.695312 5666.210938 L 33517.1875 5102.070312 L 34341.601562 5102.070312 L 38188.28125 10179.804688 L 39012.617188 10179.804688 L 39562.1875 9615.546875 L 35975.390625 9615.546875 Z M 32967.695312 5666.210938 " transform="matrix(0.1, 0, 0, -0.1, 0, 4067)"/>
<path fill="none" stroke-width="53.316" stroke-linecap="square" stroke-linejoin="miter" stroke="rgb(83.984375%, 83.59375%, 65.818787%)" stroke-opacity="1" stroke-miterlimit="4" d="M 33517.1875 10179.804688 L 33517.1875 7076.71875 L 39012.617188 5102.070312 L 39562.1875 5666.210938 L 39562.1875 6512.5 L 32967.695312 8769.257812 L 32967.695312 9615.546875 Z M 33517.1875 10179.804688 " transform="matrix(0.1, 0, 0, -0.1, 0, 4067)"/>
<path fill="none" stroke-width="36.4474" stroke-linecap="square" stroke-linejoin="miter" stroke="rgb(83.984375%, 83.59375%, 65.818787%)" stroke-opacity="1" stroke-miterlimit="4" d="M 32967.695312 6794.648438 L 36814.414062 5102.070312 L 39562.1875 8487.1875 L 39562.1875 9333.476562 L 38737.8125 9333.476562 L 35715.390625 5102.070312 L 33242.5 6230.429688 Z M 32967.695312 6794.648438 " transform="matrix(0.1, 0, 0, -0.1, 0, 4067)"/>
<path fill="none" stroke-width="53.316" stroke-linecap="square" stroke-linejoin="miter" stroke="rgb(83.984375%, 83.59375%, 65.818787%)" stroke-opacity="1" stroke-miterlimit="4" d="M 33075.3125 4620.703125 L 32525.78125 5184.84375 L 31701.484375 5184.84375 L 27854.6875 107.1875 L 27030.390625 107.1875 L 26480.898438 671.367188 L 30067.617188 671.367188 Z M 33075.3125 4620.703125 " transform="matrix(0.1, 0, 0, -0.1, 0, 4067)"/>
<path fill="none" stroke-width="53.316" stroke-linecap="square" stroke-linejoin="miter" stroke="rgb(83.984375%, 83.59375%, 65.818787%)" stroke-opacity="1" stroke-miterlimit="4" d="M 32525.78125 107.1875 L 32525.78125 3210.234375 L 27030.390625 5184.84375 L 26480.898438 4620.703125 L 26480.898438 3774.414062 L 33075.3125 1517.65625 L 33075.3125 671.367188 Z M 32525.78125 107.1875 " transform="matrix(0.1, 0, 0, -0.1, 0, 4067)"/>
<path fill="none" stroke-width="36.4474" stroke-linecap="square" stroke-linejoin="miter" stroke="rgb(83.984375%, 83.59375%, 65.818787%)" stroke-opacity="1" stroke-miterlimit="4" d="M 33075.3125 3492.34375 L 29228.59375 5184.921875 L 26480.898438 1799.726562 L 26480.898438 953.515625 L 27305.195312 953.4375 L 30327.617188 5184.84375 L 32800.585938 4056.484375 Z M 33075.3125 3492.34375 " transform="matrix(0.1, 0, 0, -0.1, 0, 4067)"/>
<path fill="none" stroke-width="53.316" stroke-linecap="square" stroke-linejoin="miter" stroke="rgb(83.984375%, 83.59375%, 65.818787%)" stroke-opacity="1" stroke-miterlimit="4" d="M 32946.210938 4587.539062 L 33495.703125 5151.796875 L 34320 5151.71875 L 38166.796875 74.0625 L 38991.09375 74.0625 L 39540.585938 638.203125 L 35953.90625 638.203125 Z M 32946.210938 4587.539062 " transform="matrix(0.1, 0, 0, -0.1, 0, 4067)"/>
<path fill="none" stroke-width="53.316" stroke-linecap="square" stroke-linejoin="miter" stroke="rgb(83.984375%, 83.59375%, 65.818787%)" stroke-opacity="1" stroke-miterlimit="4" d="M 33495.703125 74.0625 L 33495.703125 3177.109375 L 38991.09375 5151.796875 L 39540.585938 4587.539062 L 39540.585938 3741.25 L 32946.210938 1484.492188 L 32946.210938 638.203125 Z M 33495.703125 74.0625 " transform="matrix(0.1, 0, 0, -0.1, 0, 4067)"/>
<path fill="none" stroke-width="36.4474" stroke-linecap="square" stroke-linejoin="miter" stroke="rgb(83.984375%, 83.59375%, 65.818787%)" stroke-opacity="1" stroke-miterlimit="4" d="M 32946.210938 3459.179688 L 36793.007812 5151.71875 L 39540.585938 1766.5625 L 39540.585938 920.195312 L 38716.289062 920.351562 L 35693.90625 5151.71875 L 33221.015625 4023.398438 Z M 32946.210938 3459.179688 " transform="matrix(0.1, 0, 0, -0.1, 0, 4067)"/>
<path fill="none" stroke-width="53.316" stroke-linecap="square" stroke-linejoin="miter" stroke="rgb(83.984375%, 83.59375%, 65.818787%)" stroke-opacity="1" stroke-miterlimit="4" d="M 46115.703125 5633.125 L 45566.210938 5068.90625 L 44741.914062 5068.90625 L 40895.117188 10146.601562 L 40070.78125 10146.601562 L 39521.289062 9582.421875 L 43108.085938 9582.421875 Z M 46115.703125 5633.125 " transform="matrix(0.1, 0, 0, -0.1, 0, 4067)"/>
<path fill="none" stroke-width="53.316" stroke-linecap="square" stroke-linejoin="miter" stroke="rgb(83.984375%, 83.59375%, 65.818787%)" stroke-opacity="1" stroke-miterlimit="4" d="M 45566.210938 10146.601562 L 45566.210938 7043.59375 L 40070.78125 5068.90625 L 39521.289062 5633.125 L 39521.289062 6479.335938 L 46115.703125 8736.09375 L 46115.703125 9582.421875 Z M 45566.210938 10146.601562 " transform="matrix(0.1, 0, 0, -0.1, 0, 4067)"/>
<path fill="none" stroke-width="36.4474" stroke-linecap="square" stroke-linejoin="miter" stroke="rgb(83.984375%, 83.59375%, 65.818787%)" stroke-opacity="1" stroke-miterlimit="4" d="M 46115.703125 6761.484375 L 42268.984375 5068.90625 L 39521.289062 8454.023438 L 39521.289062 9300.3125 L 40345.585938 9300.3125 L 43368.085938 5068.90625 L 45841.015625 6197.265625 Z M 46115.703125 6761.484375 " transform="matrix(0.1, 0, 0, -0.1, 0, 4067)"/>
<path fill="none" stroke-width="53.316" stroke-linecap="square" stroke-linejoin="miter" stroke="rgb(83.984375%, 83.59375%, 65.818787%)" stroke-opacity="1" stroke-miterlimit="4" d="M 45986.601562 5666.210938 L 46536.210938 5102.070312 L 47360.507812 5102.070312 L 51207.304688 10179.804688 L 52031.484375 10179.804688 L 52581.015625 9615.546875 L 48994.296875 9615.546875 Z M 45986.601562 5666.210938 " transform="matrix(0.1, 0, 0, -0.1, 0, 4067)"/>
<path fill="none" stroke-width="53.316" stroke-linecap="square" stroke-linejoin="miter" stroke="rgb(83.984375%, 83.59375%, 65.818787%)" stroke-opacity="1" stroke-miterlimit="4" d="M 46536.210938 10179.804688 L 46536.210938 7076.71875 L 52031.484375 5102.070312 L 52581.015625 5666.210938 L 52581.015625 6512.5 L 45986.601562 8769.257812 L 45986.601562 9615.546875 Z M 46536.210938 10179.804688 " transform="matrix(0.1, 0, 0, -0.1, 0, 4067)"/>
<path fill="none" stroke-width="36.4474" stroke-linecap="square" stroke-linejoin="miter" stroke="rgb(83.984375%, 83.59375%, 65.818787%)" stroke-opacity="1" stroke-miterlimit="4" d="M 45986.601562 6794.648438 L 49833.398438 5102.070312 L 52581.015625 8487.1875 L 52581.015625 9333.476562 L 51756.71875 9333.476562 L 48734.414062 5102.070312 L 46261.40625 6230.429688 Z M 45986.601562 6794.648438 " transform="matrix(0.1, 0, 0, -0.1, 0, 4067)"/>
<path fill="none" stroke-width="53.316" stroke-linecap="square" stroke-linejoin="miter" stroke="rgb(83.984375%, 83.59375%, 65.818787%)" stroke-opacity="1" stroke-miterlimit="4" d="M 46094.21875 4620.703125 L 45544.6875 5184.84375 L 44720.390625 5184.84375 L 40873.59375 107.1875 L 40049.414062 107.1875 L 39499.804688 671.367188 L 43086.601562 671.367188 Z M 46094.21875 4620.703125 " transform="matrix(0.1, 0, 0, -0.1, 0, 4067)"/>
<path fill="none" stroke-width="53.316" stroke-linecap="square" stroke-linejoin="miter" stroke="rgb(83.984375%, 83.59375%, 65.818787%)" stroke-opacity="1" stroke-miterlimit="4" d="M 45544.6875 107.1875 L 45544.6875 3210.234375 L 40049.414062 5184.84375 L 39499.804688 4620.703125 L 39499.804688 3774.414062 L 46094.21875 1517.65625 L 46094.21875 671.367188 Z M 45544.6875 107.1875 " transform="matrix(0.1, 0, 0, -0.1, 0, 4067)"/>
<path fill="none" stroke-width="36.4474" stroke-linecap="square" stroke-linejoin="miter" stroke="rgb(83.984375%, 83.59375%, 65.818787%)" stroke-opacity="1" stroke-miterlimit="4" d="M 46094.21875 3492.34375 L 42247.5 5184.921875 L 39499.804688 1799.726562 L 39499.804688 953.515625 L 40324.101562 953.4375 L 43346.484375 5184.84375 L 45819.492188 4056.484375 Z M 46094.21875 3492.34375 " transform="matrix(0.1, 0, 0, -0.1, 0, 4067)"/>
<path fill="none" stroke-width="53.316" stroke-linecap="square" stroke-linejoin="miter" stroke="rgb(83.984375%, 83.59375%, 65.818787%)" stroke-opacity="1" stroke-miterlimit="4" d="M 45965.117188 4587.539062 L 46514.609375 5151.796875 L 47338.984375 5151.796875 L 51185.703125 74.0625 L 52010 74.0625 L 52559.492188 638.203125 L 48972.8125 638.203125 Z M 45965.117188 4587.539062 " transform="matrix(0.1, 0, 0, -0.1, 0, 4067)"/>
<path fill="none" stroke-width="53.316" stroke-linecap="square" stroke-linejoin="miter" stroke="rgb(83.984375%, 83.59375%, 65.818787%)" stroke-opacity="1" stroke-miterlimit="4" d="M 46514.609375 74.0625 L 46514.609375 3177.109375 L 52010 5151.796875 L 52559.492188 4587.539062 L 52559.492188 3741.25 L 45965.117188 1484.492188 L 45965.117188 638.203125 Z M 46514.609375 74.0625 " transform="matrix(0.1, 0, 0, -0.1, 0, 4067)"/>
<path fill="none" stroke-width="36.4474" stroke-linecap="square" stroke-linejoin="miter" stroke="rgb(83.984375%, 83.59375%, 65.818787%)" stroke-opacity="1" stroke-miterlimit="4" d="M 45965.117188 3459.179688 L 49811.914062 5151.71875 L 52559.492188 1766.5625 L 52559.492188 920.195312 L 51735.3125 920.351562 L 48712.8125 5151.71875 L 46239.804688 4023.398438 Z M 45965.117188 3459.179688 " transform="matrix(0.1, 0, 0, -0.1, 0, 4067)"/>
</svg>
